<svg id="svg" version="1.1" xmlns="http://www.w3.org/2000/svg" xmlns:xlink="http://www.w3.org/1999/xlink" width="400" height="400" viewBox="0, 0, 400,400"><g id="svgg"><path id="path0" d="M0.000 200.000 L 0.000 400.000 200.000 400.000 L 400.000 400.000 400.000 200.000 L 400.000 0.000 200.000 0.000 L 0.000 0.000 0.000 200.000 M300.922 47.386 C 309.123 50.361,315.728 57.319,317.641 65.000 C 317.860 65.880,318.324 67.680,318.673 69.000 C 319.510 72.171,319.892 91.798,319.187 95.400 C 318.928 96.720,318.562 99.240,318.373 101.000 C 317.840 105.973,317.281 109.651,316.793 111.400 C 316.548 112.280,316.191 113.630,316.000 114.400 C 315.642 115.843,315.205 117.423,314.393 120.200 C 314.136 121.080,313.762 121.971,313.563 122.180 C 313.363 122.389,313.200 122.903,313.200 123.323 C 313.200 124.852,306.672 138.033,303.834 142.235 C 303.375 142.914,302.167 144.714,301.148 146.235 C 300.129 147.756,298.959 149.361,298.548 149.802 C 298.137 150.242,296.990 151.673,296.000 152.982 C 293.145 156.754,281.941 167.872,277.438 171.400 C 270.869 176.547,259.979 184.400,259.410 184.400 C 259.275 184.400,258.687 184.843,258.104 185.384 C 257.520 185.925,256.551 186.572,255.950 186.821 C 254.538 187.406,254.493 187.555,254.191 192.672 C 253.788 199.512,255.147 211.328,257.221 219.000 C 257.459 219.880,257.801 221.230,257.982 222.000 C 258.163 222.770,258.490 223.940,258.709 224.600 C 258.928 225.260,259.340 226.610,259.626 227.600 C 259.911 228.590,260.490 230.210,260.912 231.200 C 261.908 233.536,262.213 234.303,262.820 236.000 C 263.331 237.431,264.134 239.415,264.924 241.200 C 265.835 243.258,265.988 243.278,267.901 241.595 C 268.897 240.718,269.942 240.000,270.223 240.000 C 270.504 240.000,270.793 239.850,270.867 239.666 C 271.243 238.721,283.271 232.000,284.584 232.000 C 284.708 232.000,285.572 231.655,286.504 231.234 C 293.098 228.256,303.571 227.488,307.594 229.688 C 309.256 230.597,311.600 233.129,311.600 234.016 C 311.600 234.359,311.825 234.865,312.100 235.140 C 312.809 235.849,312.771 245.182,312.048 247.800 C 310.021 255.139,304.014 268.118,302.359 268.733 C 302.161 268.807,302.000 269.088,302.000 269.358 C 302.000 269.628,301.685 270.200,301.300 270.630 C 300.915 271.059,299.575 272.758,298.323 274.405 C 292.540 282.013,283.516 288.801,277.006 290.440 C 275.301 290.870,275.119 291.058,273.546 294.009 C 270.117 300.445,259.288 310.000,255.423 310.000 C 255.080 310.000,254.800 310.180,254.800 310.400 C 254.800 310.620,254.476 310.800,254.080 310.800 C 253.684 310.800,253.189 310.964,252.980 311.164 C 251.775 312.317,241.277 314.733,236.000 315.071 C 233.013 315.262,231.200 316.140,231.200 317.396 C 231.200 317.896,233.189 319.779,236.000 321.941 C 236.990 322.703,237.890 323.432,238.000 323.563 C 238.110 323.693,239.100 324.514,240.200 325.386 C 241.300 326.258,242.470 327.249,242.800 327.588 C 243.130 327.926,244.300 328.916,245.400 329.788 C 246.500 330.659,247.670 331.657,248.000 332.006 C 248.330 332.356,249.320 333.170,250.200 333.816 C 251.080 334.462,252.070 335.264,252.400 335.597 C 252.730 335.931,253.900 336.916,255.000 337.788 C 256.100 338.660,257.090 339.475,257.200 339.600 C 257.310 339.725,258.300 340.540,259.400 341.412 C 260.500 342.284,261.670 343.268,262.000 343.600 C 262.330 343.932,263.410 344.865,264.400 345.674 C 265.390 346.483,266.740 347.629,267.400 348.221 C 268.060 348.812,269.535 350.009,270.677 350.879 C 275.278 354.384,277.485 359.046,276.132 362.400 C 274.921 365.404,274.647 365.836,273.282 366.900 C 270.020 369.443,264.849 368.002,259.302 363.005 C 258.078 361.902,256.583 360.640,255.981 360.200 C 255.379 359.760,253.311 358.050,251.385 356.400 C 249.459 354.750,246.723 352.460,245.303 351.312 C 243.884 350.163,242.048 348.633,241.224 347.912 C 240.400 347.190,239.292 346.258,238.763 345.839 C 238.233 345.421,236.720 344.149,235.400 343.012 C 234.080 341.875,230.930 339.259,228.400 337.199 C 225.870 335.138,223.710 333.350,223.600 333.224 C 223.490 333.098,222.725 332.493,221.901 331.878 L 220.401 330.760 214.435 336.680 C 211.153 339.936,203.847 347.100,198.200 352.600 C 192.552 358.100,186.192 364.324,184.066 366.430 C 179.613 370.841,176.563 373.321,174.470 374.229 C 173.661 374.580,172.687 375.032,172.305 375.234 C 168.114 377.445,162.802 373.921,162.708 368.867 C 162.614 363.791,161.792 364.747,189.797 337.400 C 196.556 330.800,203.713 323.794,205.702 321.832 L 209.317 318.264 207.559 316.716 C 205.243 314.678,201.941 312.400,201.301 312.400 C 201.021 312.400,199.938 312.022,198.896 311.560 C 197.853 311.098,196.640 310.577,196.200 310.401 C 193.818 309.451,189.200 307.037,189.200 306.742 C 189.200 306.554,189.014 306.400,188.786 306.400 C 188.558 306.400,187.891 306.085,187.304 305.700 C 186.440 305.134,185.267 304.991,181.170 304.955 C 175.866 304.907,172.014 303.942,169.138 301.939 C 168.554 301.533,167.879 301.200,167.638 301.200 C 167.397 301.200,167.200 301.059,167.200 300.886 C 167.200 300.714,166.615 300.235,165.900 299.822 C 162.591 297.912,145.966 282.158,138.500 273.857 C 136.091 271.179,135.730 269.360,137.229 267.454 C 138.347 266.032,141.276 265.952,142.851 267.300 C 143.429 267.795,144.765 268.920,145.822 269.800 C 146.878 270.680,147.935 271.584,148.171 271.809 C 148.407 272.033,149.140 272.633,149.800 273.142 C 150.460 273.650,152.261 275.267,153.803 276.733 C 155.344 278.200,157.251 279.883,158.041 280.473 C 158.830 281.063,160.097 282.143,160.858 282.873 C 161.618 283.603,162.763 284.560,163.401 285.000 C 164.039 285.440,165.329 286.565,166.266 287.500 C 167.203 288.435,168.079 289.200,168.212 289.200 C 168.345 289.200,169.116 289.828,169.927 290.597 C 171.400 291.993,172.307 292.442,171.753 291.500 C 171.592 291.225,170.917 290.550,170.254 290.000 C 169.591 289.450,168.227 288.223,167.224 287.273 C 165.512 285.651,162.678 283.127,160.400 281.195 C 159.345 280.300,155.456 276.892,152.412 274.194 C 151.415 273.311,149.250 271.422,147.600 269.997 C 141.556 264.776,140.187 262.418,142.214 260.716 C 142.552 260.432,143.101 259.953,143.435 259.650 C 144.274 258.891,147.040 259.311,148.165 260.367 C 148.653 260.825,149.173 261.200,149.321 261.200 C 149.604 261.200,150.527 261.922,152.391 263.600 C 154.725 265.701,155.618 266.400,155.970 266.400 C 156.170 266.400,156.393 266.542,156.467 266.714 C 156.608 267.047,158.995 268.800,159.306 268.800 C 160.248 268.800,158.609 266.373,156.273 264.308 C 147.855 256.864,147.261 256.005,148.630 253.259 C 149.770 250.975,151.191 250.691,154.100 252.167 C 156.288 253.277,156.510 252.887,154.800 250.939 C 153.340 249.276,153.263 247.812,154.547 246.072 C 155.427 244.879,155.514 244.286,155.785 237.694 C 155.945 233.792,156.345 228.980,156.673 227.000 C 157.001 225.020,157.420 222.410,157.604 221.200 C 157.992 218.652,158.430 216.752,159.402 213.400 C 160.920 208.168,161.036 208.358,155.600 207.182 C 151.265 206.245,141.366 203.225,139.905 202.395 C 139.523 202.178,138.936 202.000,138.600 202.000 C 138.264 202.000,137.677 201.835,137.295 201.634 C 136.913 201.433,135.610 200.876,134.400 200.397 C 130.918 199.017,124.100 195.755,120.200 193.602 C 110.269 188.121,97.756 177.767,90.952 169.400 C 89.878 168.080,88.898 166.910,88.774 166.800 C 87.787 165.929,85.771 162.262,84.973 159.887 C 83.924 156.767,83.605 156.001,82.152 153.103 C 76.972 142.776,87.577 134.158,102.200 136.810 C 103.300 137.010,105.010 137.279,106.000 137.407 C 106.990 137.536,108.430 137.801,109.200 137.997 C 121.602 141.145,146.343 142.044,159.200 139.814 C 162.610 139.222,166.210 138.645,167.200 138.530 C 168.190 138.416,169.171 138.160,169.380 137.961 C 169.589 137.763,170.213 137.600,170.767 137.600 C 171.320 137.600,172.499 137.340,173.387 137.023 C 174.274 136.705,176.890 135.882,179.200 135.193 C 181.510 134.504,183.713 133.774,184.095 133.570 C 184.477 133.367,185.047 133.200,185.362 133.200 C 185.677 133.200,186.445 132.941,187.068 132.625 C 187.690 132.309,189.190 131.670,190.400 131.204 C 191.610 130.738,192.960 130.211,193.400 130.032 C 193.840 129.853,194.650 129.526,195.200 129.304 C 198.221 128.086,205.296 124.947,207.200 123.980 C 212.285 121.396,216.337 119.247,218.400 118.042 C 219.610 117.335,220.915 116.655,221.300 116.531 C 221.685 116.408,222.000 116.148,222.000 115.953 C 222.000 115.759,222.153 115.600,222.341 115.600 C 222.829 115.600,227.754 112.385,232.143 109.200 C 239.126 104.133,249.449 94.469,253.557 89.154 C 255.722 86.352,261.200 78.197,261.200 77.776 C 261.200 76.935,266.792 66.183,269.008 62.764 C 277.591 49.518,290.135 43.473,300.922 47.386 M139.507 145.090 C 140.226 145.179,141.306 145.177,141.907 145.086 C 142.508 144.995,141.920 144.922,140.600 144.924 C 139.280 144.926,138.788 145.001,139.507 145.090 " stroke="none" fill="#d3b46c" fill-rule="evenodd"></path><path id="path1" d="M292.200 49.871 C 282.989 51.254,274.602 59.188,268.174 72.600 C 264.119 81.061,264.353 80.121,264.240 88.400 C 264.144 95.440,263.971 96.874,262.525 102.600 C 252.126 143.787,196.841 171.847,146.400 161.540 C 135.539 159.321,130.448 156.494,121.969 147.975 L 117.338 143.321 112.569 142.435 C 102.711 140.604,100.481 140.316,96.000 140.295 C 70.941 140.180,92.782 176.195,128.200 193.392 C 137.432 197.875,147.238 201.364,157.466 203.806 C 163.547 205.257,163.126 205.424,165.030 200.800 C 166.715 196.707,168.299 193.701,171.400 188.709 C 181.241 172.869,195.738 165.752,210.346 169.590 L 214.092 170.574 215.239 169.144 C 225.477 156.382,238.435 149.096,251.000 149.039 L 257.400 149.009 260.487 150.513 C 266.065 153.231,271.790 158.202,276.136 164.100 C 277.634 166.134,277.665 166.122,282.294 161.784 C 291.694 152.972,301.694 139.534,305.841 130.142 C 308.962 123.072,309.436 121.861,310.597 118.000 C 311.159 116.130,311.785 114.060,311.987 113.400 C 316.136 99.867,316.591 74.104,312.856 64.209 C 309.394 55.038,300.217 48.668,292.200 49.871 M298.400 229.453 C 289.741 230.104,276.887 235.737,267.962 242.793 C 266.843 243.677,265.613 244.400,265.227 244.400 C 264.489 244.400,264.115 244.746,260.681 248.600 C 251.389 259.029,249.058 265.485,250.567 276.605 C 251.145 280.861,249.911 282.826,241.359 291.263 C 222.286 310.081,222.357 310.018,220.740 309.768 C 219.892 309.637,218.953 309.747,218.499 310.031 C 217.659 310.556,214.727 308.380,204.712 299.800 C 199.166 295.049,198.873 294.473,198.422 287.400 C 197.680 275.749,189.736 266.869,164.843 249.868 C 163.609 249.026,161.788 247.657,160.797 246.826 C 157.797 244.313,154.800 245.105,154.800 248.410 C 154.800 249.920,159.052 254.960,161.018 255.782 C 161.774 256.098,163.632 257.401,165.147 258.678 C 166.662 259.955,169.031 261.900,170.412 263.000 C 171.793 264.100,173.736 265.692,174.729 266.537 C 175.721 267.382,178.657 269.769,181.252 271.842 C 184.507 274.441,185.900 275.795,185.743 276.205 C 185.297 277.366,183.981 276.801,180.949 274.145 C 180.481 273.735,176.444 270.520,171.979 267.000 C 167.513 263.480,162.586 259.386,161.030 257.901 C 159.473 256.417,157.887 255.202,157.503 255.201 C 157.120 255.201,155.982 254.570,154.973 253.800 C 152.110 251.615,149.705 252.025,149.009 254.817 C 148.670 256.174,149.518 257.200,154.537 261.504 C 156.771 263.420,158.954 265.441,159.386 265.994 C 160.792 267.795,163.377 270.278,164.400 270.811 C 164.950 271.098,167.175 272.878,169.344 274.766 C 171.513 276.655,174.033 278.826,174.944 279.592 C 179.475 283.401,180.445 284.800,178.557 284.800 C 177.849 284.800,166.957 276.166,165.787 274.677 C 164.893 273.539,162.213 271.600,161.535 271.600 C 161.034 271.600,157.047 268.622,151.400 264.029 C 146.142 259.753,144.114 259.226,142.846 261.808 C 142.045 263.438,142.971 264.915,146.893 268.262 C 150.282 271.155,155.341 275.597,162.765 282.200 C 165.239 284.400,168.415 287.151,169.824 288.313 C 172.540 290.553,173.399 291.705,173.043 292.631 C 172.619 293.736,171.456 293.168,168.246 290.288 C 166.461 288.687,164.010 286.575,162.800 285.595 C 161.590 284.615,158.553 282.010,156.052 279.807 C 141.576 267.055,140.037 266.021,138.229 267.829 C 136.061 269.997,137.076 271.449,149.400 283.810 C 163.737 298.189,167.952 301.232,177.409 304.028 C 178.132 304.242,179.977 304.231,181.999 304.000 C 183.860 303.788,186.376 303.738,187.591 303.890 C 188.806 304.041,189.966 304.118,190.170 304.059 C 191.705 303.620,193.733 304.620,196.236 307.050 C 197.700 308.471,199.618 310.001,200.498 310.450 C 203.254 311.856,210.322 317.420,210.373 318.223 C 210.388 318.456,208.465 320.529,206.100 322.831 C 167.855 360.054,166.274 361.632,165.088 363.755 C 160.614 371.759,166.213 377.288,174.618 373.166 C 176.554 372.217,178.627 370.266,202.200 347.220 C 223.153 326.736,220.268 328.922,223.000 331.459 C 223.660 332.072,226.978 334.839,231.396 338.459 C 232.887 339.681,238.198 344.187,238.400 344.402 C 238.586 344.599,244.455 349.430,246.163 350.792 C 246.582 351.126,247.572 351.959,248.363 352.641 C 254.307 357.776,263.288 365.004,264.710 365.799 C 274.446 371.240,279.957 358.492,270.663 352.031 C 269.748 351.396,268.640 350.537,268.200 350.124 C 267.326 349.304,255.764 339.591,253.756 337.991 C 247.385 332.914,229.600 317.756,229.600 317.403 C 229.600 316.762,231.525 315.097,233.327 314.178 C 235.191 313.228,236.400 312.149,236.400 311.434 C 236.400 310.844,254.344 293.226,256.223 291.971 C 259.130 290.030,261.818 289.674,266.600 290.597 C 268.580 290.980,270.702 291.383,271.316 291.494 C 272.001 291.618,272.696 291.460,273.116 291.085 C 273.492 290.749,274.894 290.117,276.231 289.681 C 285.235 286.745,291.459 281.818,299.566 271.208 C 308.984 258.883,314.185 242.044,310.854 234.662 C 309.120 230.819,304.717 228.978,298.400 229.453 M305.400 231.767 C 311.366 234.286,312.040 242.644,307.237 254.555 C 298.178 277.019,279.352 292.234,265.325 288.425 C 263.595 287.955,262.863 287.947,260.925 288.375 C 255.726 289.522,255.763 289.492,236.861 308.057 C 227.426 317.325,228.314 316.669,226.697 315.561 C 222.138 312.434,222.146 312.388,228.500 306.190 C 252.745 282.539,252.684 282.613,252.415 277.200 C 251.903 266.917,252.302 263.987,254.860 259.259 C 263.740 242.841,293.406 226.704,305.400 231.767 M161.759 249.783 C 187.276 267.083,196.241 276.647,196.645 287.000 C 196.990 295.861,196.809 295.616,212.583 308.600 C 224.484 318.397,223.558 317.144,221.178 320.229 C 218.866 323.225,219.014 323.258,213.313 318.491 C 192.756 301.307,194.028 302.224,190.149 301.785 C 188.404 301.588,187.084 301.703,185.266 302.214 C 175.739 304.887,168.092 300.500,149.116 281.476 C 139.201 271.536,138.100 270.129,139.301 268.927 C 140.045 268.183,141.007 268.610,143.427 270.757 C 144.321 271.551,148.805 275.440,153.391 279.400 C 157.976 283.360,163.634 288.283,165.964 290.339 C 171.702 295.404,173.298 295.897,174.418 292.952 C 175.056 291.274,174.638 290.690,169.680 286.336 C 167.106 284.075,164.910 282.127,164.800 282.007 C 164.690 281.887,163.340 280.716,161.800 279.406 C 160.260 278.096,157.290 275.488,155.200 273.610 C 153.110 271.733,149.960 268.937,148.200 267.398 C 143.790 263.542,143.035 262.345,144.626 261.735 C 145.716 261.316,146.855 262.128,160.267 272.891 C 179.694 288.478,178.398 287.639,180.218 285.818 C 181.987 284.049,181.135 282.479,176.187 278.400 C 174.431 276.952,169.435 272.651,169.200 272.385 C 168.987 272.144,161.221 265.325,154.474 259.455 C 150.518 256.012,150.002 255.249,150.788 254.006 C 151.534 252.826,155.893 256.024,177.600 273.670 C 184.534 279.307,184.942 279.494,186.618 277.818 C 188.893 275.543,188.493 275.146,165.213 256.600 C 157.805 250.698,156.000 249.104,156.000 248.459 C 156.000 246.481,157.346 246.791,161.759 249.783 M228.921 319.895 C 230.505 321.158,233.180 323.363,234.867 324.795 C 236.554 326.228,239.780 328.930,242.034 330.800 C 244.289 332.670,247.617 335.460,249.429 337.000 C 251.241 338.540,254.296 341.060,256.218 342.600 C 258.140 344.140,260.633 346.213,261.757 347.206 C 264.883 349.970,268.453 352.946,269.937 354.026 C 276.393 358.727,273.183 367.896,266.340 364.300 C 265.024 363.608,262.721 361.966,262.000 361.205 C 261.670 360.856,260.938 360.218,260.374 359.786 C 259.810 359.354,258.460 358.242,257.374 357.315 C 256.288 356.387,254.050 354.524,252.400 353.174 C 250.750 351.823,248.590 350.032,247.600 349.192 C 246.610 348.353,244.450 346.534,242.800 345.150 C 241.150 343.766,239.710 342.521,239.600 342.383 C 239.490 342.245,239.101 341.967,238.735 341.766 C 238.369 341.565,237.379 340.767,236.535 339.993 C 235.691 339.219,234.460 338.170,233.800 337.661 C 233.140 337.151,231.970 336.158,231.200 335.453 C 230.430 334.748,229.425 333.907,228.967 333.585 C 228.508 333.263,227.273 332.280,226.220 331.400 C 221.572 327.512,219.806 325.892,219.888 325.592 C 220.107 324.794,225.469 317.600,225.845 317.600 C 225.954 317.600,227.338 318.633,228.921 319.895 M214.806 322.150 C 216.693 323.413,217.333 324.247,217.100 325.138 C 216.994 325.546,217.238 326.312,217.644 326.840 C 218.767 328.300,218.833 328.205,211.900 335.031 C 193.545 353.101,176.205 369.859,175.053 370.641 C 170.348 373.839,165.169 372.579,165.836 368.400 C 166.469 364.430,166.487 364.411,191.600 339.933 C 200.070 331.678,208.080 323.853,209.400 322.544 C 212.044 319.922,211.534 319.959,214.806 322.150 " stroke="none" fill="#030303" fill-rule="evenodd"></path><path id="path2" d="M174.500 139.076 C 174.885 139.176,175.515 139.176,175.900 139.076 C 176.285 138.975,175.970 138.893,175.200 138.893 C 174.430 138.893,174.115 138.975,174.500 139.076 M120.500 142.687 C 121.105 142.778,122.095 142.778,122.700 142.687 C 123.305 142.595,122.810 142.520,121.600 142.520 C 120.390 142.520,119.895 142.595,120.500 142.687 M157.100 142.689 C 157.815 142.778,158.985 142.778,159.700 142.689 C 160.415 142.601,159.830 142.528,158.400 142.528 C 156.970 142.528,156.385 142.601,157.100 142.689 M133.274 143.499 C 136.945 143.565,143.065 143.565,146.874 143.499 C 150.683 143.434,147.680 143.380,140.200 143.380 C 132.720 143.379,129.603 143.433,133.274 143.499 M245.400 149.174 C 236.025 150.726,223.206 159.213,215.239 169.144 L 214.092 170.574 210.346 169.590 C 195.738 165.752,181.241 172.869,171.400 188.709 C 168.299 193.700,166.716 196.706,165.030 200.800 C 164.441 202.230,163.788 203.713,163.580 204.095 C 163.057 205.051,163.052 205.042,164.400 205.600 C 166.295 206.385,165.591 208.805,163.617 208.289 C 162.671 208.041,162.039 208.723,161.579 210.489 C 161.392 211.210,160.811 213.420,160.288 215.400 C 158.298 222.948,157.708 227.156,157.260 237.000 C 156.930 244.272,156.973 244.674,158.121 245.039 C 158.581 245.184,160.046 246.141,161.378 247.164 C 162.710 248.187,165.060 249.902,166.600 250.975 C 171.467 254.367,176.511 258.117,179.200 260.344 C 180.630 261.527,182.162 262.789,182.603 263.148 C 194.427 272.745,198.394 278.659,198.405 286.708 C 198.415 293.977,199.059 294.997,208.739 303.059 C 212.623 306.293,216.210 309.304,216.711 309.749 C 217.571 310.515,217.683 310.524,218.729 309.906 C 219.465 309.471,220.031 309.375,220.418 309.620 C 221.769 310.474,220.612 311.462,236.542 295.847 C 250.673 281.996,251.407 280.887,250.389 274.937 C 248.687 264.986,252.419 256.740,263.883 245.116 C 264.802 244.185,264.889 243.903,264.499 243.116 C 263.733 241.569,262.186 237.923,261.224 235.400 C 260.721 234.080,260.072 232.460,259.783 231.799 C 259.007 230.029,257.204 224.441,256.814 222.600 C 256.628 221.720,256.211 220.010,255.889 218.800 C 253.036 208.107,251.768 191.752,253.455 187.400 C 253.796 186.520,254.171 185.293,254.287 184.674 C 254.454 183.784,255.382 182.946,258.717 180.674 C 264.833 176.507,274.355 169.337,276.131 167.562 L 277.663 166.031 276.335 164.316 C 266.556 151.679,257.387 147.191,245.400 149.174 M158.000 254.238 C 158.000 255.525,162.114 259.216,172.000 266.800 C 174.310 268.572,176.740 270.510,177.400 271.105 C 179.758 273.235,183.416 276.093,184.329 276.520 C 185.963 277.284,186.230 276.000,184.686 274.804 C 183.979 274.256,182.680 273.169,181.800 272.390 C 180.920 271.611,178.854 269.899,177.210 268.586 C 175.565 267.274,173.882 265.930,173.469 265.600 C 173.056 265.270,172.061 264.419,171.259 263.709 C 170.456 262.999,169.678 262.414,169.529 262.409 C 169.379 262.404,169.009 262.151,168.705 261.848 C 167.421 260.564,161.020 255.600,160.649 255.600 C 160.426 255.600,159.739 255.116,159.122 254.525 C 158.103 253.549,158.000 253.523,158.000 254.238 M160.800 268.281 C 160.800 269.321,162.087 271.622,163.035 272.279 C 163.609 272.675,164.915 273.823,165.939 274.830 C 168.648 277.494,178.048 284.851,178.535 284.688 C 179.876 284.241,179.340 283.575,173.799 278.800 C 171.630 276.930,169.032 274.667,168.027 273.772 C 167.022 272.876,165.570 271.715,164.800 271.191 C 164.030 270.667,163.308 270.140,163.197 270.019 C 162.234 268.982,160.800 267.942,160.800 268.281 M259.400 290.711 C 258.300 291.097,256.914 291.680,256.320 292.007 C 254.767 292.862,236.400 310.793,236.400 311.454 C 236.400 311.759,236.040 312.316,235.600 312.693 C 233.870 314.174,235.586 314.137,243.200 312.530 C 245.730 311.996,248.387 311.459,249.104 311.336 C 249.821 311.212,250.506 310.951,250.627 310.756 C 250.748 310.560,251.091 310.400,251.388 310.400 C 255.599 310.400,268.817 300.351,271.655 294.992 C 273.421 291.655,273.424 291.408,271.695 291.348 C 270.873 291.320,269.030 291.093,267.600 290.845 C 262.757 290.003,261.479 289.983,259.400 290.711 M188.600 305.001 C 190.173 306.309,198.561 310.400,199.671 310.400 C 199.875 310.400,198.935 309.455,197.583 308.300 C 192.677 304.109,192.960 304.266,190.073 304.130 L 187.400 304.003 188.600 305.001 M223.362 321.355 C 223.101 322.035,223.451 322.800,224.024 322.800 C 224.528 322.800,224.506 321.313,223.997 320.998 C 223.776 320.861,223.490 321.022,223.362 321.355 M225.800 324.400 C 226.432 325.060,227.115 325.600,227.317 325.600 C 227.519 325.600,228.030 326.039,228.452 326.576 C 229.100 327.399,231.279 328.800,231.912 328.800 C 232.305 328.800,228.321 325.199,227.187 324.529 C 226.534 324.143,226.000 323.686,226.000 323.514 C 226.000 323.341,225.696 323.200,225.325 323.200 C 224.798 323.200,224.901 323.462,225.800 324.400 M207.745 330.917 C 203.633 334.922,198.071 340.360,195.385 343.000 C 192.699 345.640,186.239 351.940,181.030 357.000 C 170.967 366.775,169.458 368.692,170.324 370.593 C 170.576 371.147,171.012 371.586,171.291 371.568 C 171.692 371.544,171.694 371.494,171.300 371.335 C 169.687 370.684,170.768 368.568,174.700 364.681 C 183.274 356.204,196.103 343.679,213.367 326.929 C 215.356 324.998,216.145 323.988,215.773 323.845 C 215.433 323.715,212.347 326.432,207.745 330.917 M232.400 329.197 C 232.400 329.702,234.037 331.600,234.472 331.600 C 235.094 331.600,234.797 330.833,233.782 329.818 C 232.675 328.711,232.400 328.588,232.400 329.197 M238.436 335.000 C 239.623 336.210,240.784 337.200,241.016 337.200 C 241.248 337.200,242.141 337.920,243.000 338.800 C 243.859 339.680,244.716 340.400,244.903 340.400 C 245.090 340.400,245.819 340.949,246.522 341.619 C 247.225 342.289,248.295 343.138,248.900 343.505 C 249.505 343.872,250.000 344.383,250.000 344.640 C 250.000 344.896,250.360 345.201,250.800 345.316 C 251.240 345.431,251.600 345.463,251.600 345.387 C 251.600 345.050,249.183 342.713,246.813 340.759 C 245.390 339.586,243.905 338.305,243.513 337.913 C 243.121 337.521,242.617 337.200,242.393 337.200 C 242.169 337.200,241.373 336.615,240.623 335.900 C 236.690 332.148,234.927 331.422,238.436 335.000 M253.348 347.427 C 254.067 348.212,255.024 349.067,255.474 349.327 C 256.699 350.035,261.547 353.996,263.216 355.654 C 264.752 357.179,266.403 358.249,266.396 357.714 C 266.391 357.370,263.843 354.800,263.506 354.800 C 263.391 354.800,262.582 354.125,261.709 353.300 C 259.726 351.426,258.550 350.451,256.931 349.338 C 256.233 348.859,255.081 347.911,254.372 347.233 C 252.581 345.522,251.748 345.680,253.348 347.427 M267.881 359.387 C 268.277 359.931,268.879 360.381,269.220 360.387 C 269.561 360.394,270.021 360.581,270.241 360.801 C 270.510 361.070,270.901 361.008,271.421 360.614 C 272.159 360.057,272.131 360.025,270.900 360.013 C 270.147 360.005,269.263 359.663,268.800 359.200 C 267.671 358.071,267.020 358.204,267.881 359.387 " stroke="none" fill="#e70e0b" fill-rule="evenodd"></path><path id="path3" d="M262.589 84.100 C 251.594 99.371,237.277 112.425,223.000 120.195 C 221.900 120.794,220.820 121.426,220.600 121.599 C 218.742 123.065,204.787 129.898,198.458 132.441 C 196.776 133.116,194.140 134.179,192.600 134.802 C 184.728 137.989,174.230 141.251,167.600 142.571 C 152.686 145.541,133.507 146.190,121.100 144.143 C 118.976 143.792,119.174 144.174,123.105 148.011 C 128.084 152.871,134.745 157.614,137.816 158.485 C 149.814 161.889,158.068 162.961,170.200 162.690 C 183.659 162.390,190.878 161.273,201.600 157.829 C 207.934 155.795,210.893 154.614,218.000 151.282 C 228.926 146.160,241.216 136.505,248.465 127.348 C 251.278 123.794,256.800 115.632,256.800 115.028 C 256.800 114.942,257.443 113.460,258.228 111.736 C 260.608 106.511,261.114 104.956,262.448 98.755 C 263.218 95.176,264.007 83.200,263.473 83.200 C 263.343 83.200,262.946 83.605,262.589 84.100 M298.200 231.900 C 294.379 232.231,290.149 233.313,286.400 234.918 C 285.630 235.247,284.010 235.933,282.800 236.441 C 276.838 238.945,266.526 246.180,261.979 251.050 C 254.072 259.516,251.706 266.565,253.429 276.521 C 253.730 278.258,253.102 280.935,251.761 283.639 C 251.107 284.958,247.054 289.193,237.424 298.621 C 230.041 305.850,224.000 311.891,224.000 312.045 C 224.000 312.199,224.872 313.055,225.937 313.948 L 227.875 315.570 231.837 311.740 C 234.017 309.633,239.857 303.918,244.816 299.038 C 256.447 287.594,259.164 286.152,266.288 287.644 C 269.292 288.274,270.176 288.313,272.400 287.912 C 273.830 287.654,275.154 287.485,275.342 287.536 C 275.530 287.586,275.890 287.465,276.142 287.266 C 276.394 287.067,277.320 286.676,278.200 286.398 C 292.721 281.801,311.131 253.716,309.400 238.801 C 308.812 233.732,304.895 231.319,298.200 231.900 M157.009 248.385 C 156.878 248.598,158.336 249.993,160.249 251.485 C 162.163 252.978,164.493 254.830,165.427 255.600 C 166.362 256.370,169.348 258.799,172.063 260.998 C 174.779 263.197,177.200 265.177,177.444 265.398 C 177.689 265.619,178.585 266.340,179.436 267.000 C 180.286 267.660,181.703 268.830,182.583 269.600 C 183.464 270.370,184.368 271.124,184.592 271.276 C 188.378 273.843,189.305 276.356,187.231 278.431 C 185.459 280.203,184.039 279.899,180.313 276.949 C 178.711 275.680,177.310 274.527,177.200 274.384 C 177.090 274.242,176.100 273.449,175.000 272.622 C 173.900 271.795,172.459 270.642,171.797 270.059 C 171.136 269.477,169.876 268.467,168.997 267.814 C 168.119 267.162,167.131 266.366,166.801 266.044 C 166.472 265.723,164.884 264.456,163.272 263.230 C 161.660 262.003,159.748 260.542,159.023 259.981 C 157.347 258.686,153.569 255.565,152.854 254.884 C 151.826 253.907,150.818 254.895,151.714 256.000 C 151.981 256.330,154.450 258.485,157.200 260.788 C 159.950 263.092,162.406 265.162,162.658 265.388 C 162.910 265.615,163.969 266.520,165.010 267.400 C 166.052 268.280,167.651 269.720,168.565 270.600 C 170.617 272.576,172.684 274.408,175.792 277.003 C 177.107 278.101,178.604 279.409,179.118 279.908 C 179.632 280.407,180.490 281.103,181.026 281.454 C 182.219 282.236,182.343 284.295,181.304 286.055 C 179.716 288.742,177.072 287.952,172.004 283.274 C 171.452 282.764,170.514 282.089,169.920 281.774 C 169.326 281.458,168.696 280.957,168.520 280.661 C 168.344 280.364,167.030 279.242,165.600 278.168 C 164.170 277.094,162.640 275.880,162.200 275.470 C 161.760 275.060,160.590 274.165,159.600 273.481 C 158.610 272.797,157.607 272.049,157.371 271.819 C 157.135 271.589,156.248 270.860,155.401 270.200 C 153.629 268.819,151.258 266.844,150.436 266.065 C 149.164 264.858,145.695 262.400,145.264 262.400 C 144.187 262.400,144.960 263.610,147.300 265.587 C 148.675 266.749,151.060 268.831,152.600 270.214 C 154.140 271.597,155.938 273.149,156.596 273.664 C 157.254 274.179,158.604 275.337,159.596 276.238 C 165.673 281.754,168.475 284.230,172.000 287.199 C 176.107 290.657,176.585 292.061,174.440 294.358 C 172.732 296.186,171.119 296.053,168.757 293.889 C 167.744 292.960,165.426 290.940,163.607 289.400 C 159.916 286.276,153.875 281.027,152.558 279.800 C 152.086 279.360,150.226 277.740,148.424 276.200 C 146.623 274.660,144.216 272.550,143.075 271.512 C 140.010 268.721,138.205 269.037,140.900 271.892 C 144.092 275.273,156.483 287.664,159.209 290.200 C 163.852 294.520,167.271 297.160,170.600 298.995 C 175.043 301.444,183.791 302.769,185.334 301.226 C 186.305 300.255,194.000 301.014,194.000 302.080 C 194.000 302.256,194.326 302.400,194.725 302.400 C 195.123 302.400,195.800 302.715,196.229 303.100 C 197.324 304.083,200.624 306.794,202.307 308.093 C 203.086 308.694,204.371 309.777,205.162 310.500 C 205.953 311.223,207.140 312.230,207.800 312.739 C 208.460 313.249,209.630 314.235,210.400 314.933 C 211.170 315.630,212.430 316.682,213.200 317.271 C 213.970 317.861,215.080 318.761,215.666 319.271 C 218.813 322.012,218.535 321.915,219.718 320.678 C 221.300 319.024,222.190 316.800,221.271 316.800 C 221.089 316.800,219.334 315.455,217.371 313.810 C 215.407 312.166,212.638 309.871,211.217 308.710 C 209.797 307.550,207.727 305.783,206.617 304.784 C 205.508 303.785,203.970 302.493,203.200 301.912 C 201.313 300.488,198.000 297.414,198.000 297.087 C 198.000 296.942,197.542 295.823,196.983 294.601 C 196.133 292.743,195.947 291.674,195.849 288.089 C 195.736 283.976,194.864 279.934,193.969 279.381 C 193.766 279.256,193.600 278.884,193.600 278.555 C 193.600 277.768,189.503 272.629,187.258 270.600 C 184.730 268.315,183.974 267.667,182.439 266.465 C 181.690 265.879,180.700 265.036,180.239 264.590 C 179.777 264.145,178.680 263.245,177.800 262.590 C 176.920 261.936,175.956 261.169,175.657 260.886 C 175.359 260.603,174.026 259.633,172.695 258.729 C 170.292 257.097,169.826 256.746,167.443 254.769 C 165.946 253.528,157.811 248.000,157.481 248.000 C 157.352 248.000,157.140 248.173,157.009 248.385 M225.621 320.900 C 225.636 321.530,226.550 322.519,228.672 324.200 C 230.338 325.520,232.316 327.159,233.066 327.843 C 234.241 328.913,237.346 331.496,246.068 338.665 C 247.096 339.509,251.674 343.350,256.243 347.200 C 260.812 351.050,264.891 354.470,265.309 354.800 C 265.727 355.130,266.994 356.170,268.125 357.112 C 270.212 358.850,271.290 359.114,271.516 357.942 C 271.596 357.526,270.092 356.005,267.320 353.700 C 264.944 351.724,261.200 348.598,259.000 346.754 C 256.800 344.909,254.460 342.980,253.800 342.467 C 253.140 341.955,251.970 340.961,251.200 340.260 C 250.430 339.559,249.325 338.629,248.744 338.193 C 247.667 337.384,233.563 325.610,233.200 325.217 C 233.090 325.097,232.010 324.179,230.800 323.175 C 226.687 319.763,225.583 319.278,225.621 320.900 M212.185 329.896 C 209.993 332.004,204.600 337.261,200.200 341.579 C 195.800 345.897,187.732 353.787,182.270 359.112 C 172.709 368.435,171.593 369.798,173.115 370.305 C 173.399 370.400,176.729 367.432,180.515 363.709 C 184.302 359.987,190.730 353.698,194.800 349.734 C 218.811 326.348,217.398 327.817,216.756 326.901 C 216.186 326.088,216.057 326.172,212.185 329.896 " stroke="none" fill="#edecec" fill-rule="evenodd"></path><path id="path4" d="M263.432 81.949 C 263.278 82.197,263.343 82.400,263.576 82.400 C 263.809 82.400,264.014 82.715,264.032 83.100 C 264.049 83.492,264.150 83.587,264.260 83.315 C 264.543 82.618,263.788 81.373,263.432 81.949 M264.154 88.800 C 264.154 91.550,264.218 92.675,264.296 91.300 C 264.374 89.925,264.374 87.675,264.296 86.300 C 264.218 84.925,264.154 86.050,264.154 88.800 M94.707 137.090 C 95.426 137.179,96.506 137.177,97.107 137.086 C 97.708 136.995,97.120 136.922,95.800 136.924 C 94.480 136.926,93.988 137.001,94.707 137.090 M117.600 143.351 C 117.600 143.434,117.870 143.726,118.200 144.000 C 118.691 144.408,118.800 144.380,118.800 143.849 C 118.800 143.492,118.530 143.200,118.200 143.200 C 117.870 143.200,117.600 143.268,117.600 143.351 M166.500 163.891 C 167.325 163.978,168.675 163.978,169.500 163.891 C 170.325 163.805,169.650 163.734,168.000 163.734 C 166.350 163.734,165.675 163.805,166.500 163.891 M253.693 189.200 C 253.693 189.970,253.775 190.285,253.876 189.900 C 253.976 189.515,253.976 188.885,253.876 188.500 C 253.775 188.115,253.693 188.430,253.693 189.200 M253.328 195.600 C 253.328 197.030,253.401 197.615,253.489 196.900 C 253.578 196.185,253.578 195.015,253.489 194.300 C 253.401 193.585,253.328 194.170,253.328 195.600 M253.701 202.200 C 253.705 203.080,253.787 203.393,253.883 202.895 C 253.979 202.398,253.975 201.678,253.875 201.295 C 253.775 200.913,253.696 201.320,253.701 202.200 M156.901 228.200 C 156.905 229.080,156.987 229.393,157.083 228.895 C 157.179 228.398,157.175 227.678,157.075 227.295 C 156.975 226.913,156.896 227.320,156.901 228.200 M156.501 233.800 C 156.505 234.680,156.587 234.993,156.683 234.495 C 156.779 233.998,156.775 233.278,156.675 232.895 C 156.575 232.513,156.496 232.920,156.501 233.800 M155.973 240.901 C 155.863 243.883,155.946 245.601,156.200 245.601 C 156.446 245.601,156.556 244.176,156.487 241.900 C 156.309 236.100,156.160 235.811,155.973 240.901 M156.406 252.300 C 156.424 253.177,157.188 253.759,157.194 252.900 C 157.197 252.405,157.020 252.000,156.800 252.000 C 156.580 252.000,156.403 252.135,156.406 252.300 M159.431 267.030 C 159.794 268.539,159.856 268.594,160.108 267.631 C 160.224 267.185,160.058 266.614,159.734 266.345 C 159.236 265.932,159.191 266.034,159.431 267.030 M160.001 269.438 C 160.001 269.899,160.360 270.602,160.800 271.000 C 161.815 271.918,161.815 271.573,160.801 269.910 C 160.140 268.825,160.003 268.744,160.001 269.438 M273.600 290.776 C 273.600 291.439,274.184 291.534,274.716 290.958 C 275.144 290.494,275.093 290.400,274.416 290.400 C 273.967 290.400,273.600 290.569,273.600 290.776 M185.600 303.904 C 185.600 304.071,185.940 304.420,186.356 304.680 C 187.013 305.090,187.086 305.050,186.910 304.376 C 186.719 303.647,185.600 303.244,185.600 303.904 M200.999 311.202 C 200.862 311.424,201.076 311.722,201.475 311.865 C 201.874 312.007,202.335 312.196,202.500 312.285 C 202.665 312.374,202.800 312.263,202.800 312.038 C 202.800 311.411,201.300 310.715,200.999 311.202 M232.800 314.600 C 232.392 315.091,232.420 315.200,232.951 315.200 C 233.308 315.200,233.600 314.930,233.600 314.600 C 233.600 314.270,233.532 314.000,233.449 314.000 C 233.366 314.000,233.074 314.270,232.800 314.600 M212.777 320.938 C 213.094 321.339,214.149 322.215,215.121 322.883 L 216.887 324.099 212.744 328.340 L 208.600 332.582 212.800 328.591 C 217.800 323.840,217.522 324.311,216.012 323.145 C 215.338 322.625,214.205 321.752,213.493 321.204 C 212.687 320.584,212.417 320.483,212.777 320.938 M198.795 341.900 L 192.200 348.600 198.900 342.005 C 205.125 335.877,205.781 335.200,205.495 335.200 C 205.438 335.200,202.423 338.215,198.795 341.900 M203.578 341.900 L 202.200 343.400 203.700 342.022 C 205.096 340.738,205.384 340.400,205.078 340.400 C 205.012 340.400,204.337 341.075,203.578 341.900 M185.775 354.500 L 184.600 355.800 185.900 354.625 C 187.112 353.530,187.384 353.200,187.075 353.200 C 187.006 353.200,186.421 353.785,185.775 354.500 M186.987 358.100 L 184.600 360.600 187.100 358.213 C 189.422 355.995,189.783 355.600,189.487 355.600 C 189.426 355.600,188.301 356.725,186.987 358.100 M179.793 360.500 L 175.400 365.000 179.900 360.607 C 182.375 358.191,184.400 356.166,184.400 356.107 C 184.400 355.818,183.874 356.320,179.793 360.500 " stroke="none" fill="#b46e53" fill-rule="evenodd"></path><path id="path5" d="M286.994 47.379 C 277.408 50.979,270.657 58.172,263.861 72.025 C 262.397 75.008,261.200 77.596,261.200 77.776 C 261.200 78.197,255.722 86.352,253.557 89.154 C 249.449 94.469,239.126 104.133,232.143 109.200 C 227.754 112.385,222.829 115.600,222.341 115.600 C 222.153 115.600,222.000 115.759,222.000 115.953 C 222.000 116.148,221.685 116.408,221.300 116.531 C 220.915 116.655,219.610 117.335,218.400 118.042 C 216.337 119.247,212.285 121.396,207.200 123.980 C 205.296 124.947,198.221 128.086,195.200 129.304 C 194.650 129.526,193.840 129.853,193.400 130.032 C 192.960 130.211,191.610 130.744,190.400 131.216 C 189.190 131.688,187.772 132.245,187.248 132.452 C 186.725 132.660,186.410 132.943,186.549 133.082 C 186.688 133.221,187.206 133.143,187.701 132.909 C 188.195 132.674,189.590 132.094,190.800 131.620 C 192.010 131.145,193.360 130.607,193.800 130.423 C 194.240 130.238,196.040 129.499,197.800 128.779 C 220.482 119.499,241.242 105.011,253.555 89.870 C 256.276 86.524,262.000 78.160,262.000 77.530 C 262.000 76.289,266.915 66.782,269.821 62.400 C 275.398 53.993,283.371 48.090,290.816 46.856 L 293.000 46.494 291.200 46.484 C 290.210 46.479,288.317 46.882,286.994 47.379 M297.600 46.967 C 308.190 49.304,314.608 55.904,317.858 67.800 C 319.275 72.987,319.715 88.432,318.649 95.600 C 318.306 97.910,317.751 101.823,317.415 104.295 C 313.257 134.938,295.468 159.453,259.880 183.585 C 254.239 187.410,254.198 187.449,253.930 189.218 C 253.260 193.634,253.936 205.757,255.178 211.600 L 255.561 213.400 255.418 211.600 C 255.339 210.610,254.974 206.920,254.605 203.400 C 253.560 193.405,254.030 187.616,255.950 186.821 C 256.551 186.572,257.520 185.925,258.104 185.384 C 258.687 184.843,259.275 184.400,259.410 184.400 C 259.979 184.400,270.869 176.547,277.438 171.400 C 281.941 167.872,293.145 156.754,296.000 152.982 C 296.990 151.673,298.137 150.242,298.548 149.802 C 298.959 149.361,300.129 147.756,301.148 146.235 C 302.167 144.714,303.375 142.914,303.834 142.235 C 306.672 138.033,313.200 124.852,313.200 123.323 C 313.200 122.903,313.363 122.389,313.563 122.180 C 313.762 121.971,314.136 121.080,314.393 120.200 C 315.205 117.423,315.642 115.843,316.000 114.400 C 316.191 113.630,316.548 112.280,316.793 111.400 C 317.281 109.651,317.840 105.973,318.373 101.000 C 318.562 99.240,318.928 96.720,319.187 95.400 C 319.892 91.798,319.510 72.171,318.673 69.000 C 318.324 67.680,317.860 65.880,317.641 65.000 C 315.405 56.023,304.397 46.219,296.802 46.441 C 295.575 46.477,295.675 46.543,297.600 46.967 M248.800 99.800 C 247.161 101.450,245.910 102.800,246.020 102.800 C 246.130 102.800,247.561 101.450,249.200 99.800 C 250.839 98.150,252.090 96.800,251.980 96.800 C 251.870 96.800,250.439 98.150,248.800 99.800 M198.400 131.800 C 197.850 132.114,197.580 132.372,197.800 132.372 C 198.020 132.372,198.650 132.114,199.200 131.800 C 199.750 131.486,200.020 131.228,199.800 131.228 C 199.580 131.228,198.950 131.486,198.400 131.800 M184.000 133.594 C 183.670 133.785,181.510 134.505,179.200 135.194 C 176.890 135.882,174.274 136.705,173.387 137.023 C 172.499 137.340,171.320 137.600,170.767 137.600 C 170.213 137.600,169.589 137.763,169.380 137.961 C 169.171 138.160,168.190 138.416,167.200 138.530 C 166.210 138.645,162.610 139.222,159.200 139.814 C 146.343 142.044,121.602 141.145,109.200 137.997 C 108.430 137.801,106.990 137.536,106.000 137.407 C 105.010 137.279,103.300 137.010,102.200 136.810 C 87.577 134.158,76.972 142.776,82.152 153.103 C 83.605 156.001,83.924 156.767,84.973 159.887 C 85.771 162.262,87.787 165.929,88.774 166.800 C 88.898 166.910,89.878 168.080,90.952 169.400 C 97.756 177.767,110.269 188.121,120.200 193.602 C 124.100 195.755,130.918 199.017,134.400 200.397 C 135.610 200.876,136.913 201.433,137.295 201.634 C 137.677 201.835,138.264 202.000,138.600 202.000 C 138.936 202.000,139.523 202.178,139.905 202.395 C 141.366 203.225,151.265 206.245,155.600 207.182 C 160.885 208.325,160.629 208.021,159.827 212.200 C 159.700 212.860,159.978 212.347,160.445 211.061 C 161.535 208.054,161.544 208.062,155.000 206.466 C 147.430 204.621,137.065 201.162,131.200 198.523 C 122.779 194.735,118.378 192.161,106.458 184.051 C 99.671 179.433,87.333 164.920,85.192 159.038 C 84.384 156.817,83.245 154.061,82.661 152.913 C 81.197 150.034,81.182 146.435,82.620 143.394 C 85.732 136.815,93.214 135.477,109.400 138.603 C 136.431 143.825,157.422 142.863,180.500 135.347 C 183.525 134.362,186.000 133.476,186.000 133.378 C 186.000 133.078,184.636 133.226,184.000 133.594 M131.500 144.689 C 132.215 144.778,133.385 144.778,134.100 144.689 C 134.815 144.601,134.230 144.528,132.800 144.528 C 131.370 144.528,130.785 144.601,131.500 144.689 M146.291 144.689 C 147.001 144.777,148.261 144.779,149.091 144.692 C 149.921 144.605,149.340 144.533,147.800 144.531 C 146.260 144.529,145.581 144.600,146.291 144.689 M158.836 215.489 C 158.575 216.540,158.190 217.953,157.981 218.628 C 157.644 219.715,157.463 222.806,157.795 221.800 C 158.280 220.331,159.634 213.900,159.489 213.755 C 159.391 213.657,159.097 214.437,158.836 215.489 M255.646 214.000 C 255.665 214.330,255.824 215.050,256.000 215.600 L 256.320 216.600 256.354 215.600 C 256.373 215.050,256.213 214.330,256.000 214.000 C 255.655 213.467,255.616 213.467,255.646 214.000 M256.434 217.600 C 256.422 218.150,256.587 218.870,256.800 219.200 C 257.309 219.987,257.309 218.584,256.800 217.400 C 256.485 216.667,256.454 216.684,256.434 217.600 M257.246 220.400 C 257.265 220.730,257.424 221.450,257.600 222.000 L 257.920 223.000 257.954 222.000 C 257.973 221.450,257.813 220.730,257.600 220.400 C 257.255 219.867,257.216 219.867,257.246 220.400 M157.040 224.271 C 156.440 227.133,156.020 231.245,156.068 233.800 C 156.118 236.514,156.130 236.477,156.463 232.600 C 156.651 230.400,157.006 227.466,157.250 226.081 C 157.686 223.610,157.505 222.053,157.040 224.271 M258.032 223.481 C 258.015 223.746,258.164 224.376,258.364 224.881 C 258.564 225.387,259.037 226.880,259.415 228.200 C 259.793 229.520,260.260 230.771,260.451 230.980 C 260.953 231.526,260.895 231.249,260.000 228.800 C 259.560 227.596,259.192 226.339,259.182 226.006 C 259.159 225.224,258.075 222.845,258.032 223.481 M299.000 228.433 C 296.686 228.657,296.722 228.668,300.027 228.733 C 305.650 228.843,308.951 230.261,310.855 233.383 C 311.309 234.128,311.598 234.348,311.599 233.949 C 311.606 230.838,304.823 227.868,299.000 228.433 M293.200 229.200 C 292.446 229.687,294.078 229.687,295.600 229.200 C 296.516 228.907,296.483 228.877,295.200 228.846 C 294.430 228.827,293.530 228.987,293.200 229.200 M289.400 230.170 C 288.520 230.426,287.103 230.943,286.251 231.318 C 285.399 231.693,284.657 232.000,284.602 232.000 C 284.154 232.000,280.777 233.711,280.928 233.861 C 281.035 233.968,281.882 233.668,282.811 233.194 C 283.739 232.721,286.322 231.727,288.550 230.986 C 292.336 229.727,292.951 229.137,289.400 230.170 M260.799 231.876 C 260.797 232.346,262.902 237.232,263.044 237.089 C 263.208 236.925,262.215 234.081,261.874 233.741 C 261.723 233.590,261.600 233.147,261.600 232.757 C 261.600 232.367,261.420 231.936,261.200 231.800 C 260.980 231.664,260.799 231.698,260.799 231.876 M276.000 236.114 C 272.794 237.993,270.811 239.359,270.805 239.691 C 270.802 239.851,272.313 238.996,274.161 237.791 C 276.010 236.586,277.709 235.600,277.938 235.600 C 278.166 235.600,278.464 235.420,278.600 235.200 C 279.023 234.516,278.283 234.776,276.000 236.114 M312.273 241.500 C 312.149 244.085,311.943 246.740,311.815 247.400 C 311.589 248.569,311.595 248.574,312.037 247.600 C 312.489 246.605,313.094 236.800,312.703 236.800 C 312.591 236.800,312.397 238.915,312.273 241.500 M155.600 240.922 C 155.600 244.265,155.498 244.783,154.600 246.000 C 153.265 247.810,153.323 249.257,154.800 250.939 C 156.089 252.406,156.506 253.718,155.390 252.792 C 155.055 252.514,154.689 252.377,154.578 252.489 C 154.466 252.600,154.846 253.000,155.422 253.378 C 157.349 254.640,157.192 252.947,155.188 250.850 C 153.702 249.295,153.637 247.708,155.000 246.238 C 155.927 245.237,156.639 237.200,155.800 237.200 C 155.690 237.200,155.600 238.875,155.600 240.922 M263.217 238.000 C 263.231 238.717,264.365 240.800,264.386 240.146 C 264.394 239.896,264.131 239.176,263.802 238.546 C 263.474 237.916,263.210 237.670,263.217 238.000 M267.901 241.595 C 266.029 243.242,265.691 243.224,265.053 241.443 C 264.903 241.026,264.682 240.785,264.561 240.906 C 264.319 241.148,265.486 243.600,265.843 243.600 C 265.965 243.600,266.906 242.934,267.933 242.120 C 270.624 239.987,270.610 240.000,270.136 240.000 C 269.903 240.000,268.897 240.718,267.901 241.595 M311.000 250.000 C 310.850 250.473,310.817 250.950,310.927 251.060 C 311.037 251.170,311.250 250.873,311.400 250.400 C 311.550 249.927,311.583 249.450,311.473 249.340 C 311.363 249.230,311.150 249.527,311.000 250.000 M149.689 251.823 C 149.200 252.165,148.800 252.613,148.800 252.819 C 148.800 253.024,149.163 252.879,149.607 252.496 C 150.051 252.113,150.906 251.686,151.507 251.547 L 152.600 251.295 151.589 251.247 C 151.033 251.221,150.178 251.480,149.689 251.823 M148.267 253.867 C 147.409 254.725,148.097 256.550,150.062 258.628 C 151.196 259.828,152.189 260.745,152.267 260.666 C 152.345 260.588,151.484 259.598,150.352 258.466 C 148.473 256.587,148.314 256.286,148.522 255.004 C 148.757 253.558,148.723 253.410,148.267 253.867 M308.501 256.877 C 307.787 258.449,307.259 259.792,307.328 259.861 C 307.544 260.077,310.060 254.780,309.927 254.389 C 309.857 254.185,309.216 255.305,308.501 256.877 M143.319 259.688 C 143.055 259.969,142.560 260.432,142.219 260.716 C 141.231 261.539,141.479 265.200,142.523 265.200 C 142.815 265.200,142.801 265.041,142.480 264.720 C 139.833 262.073,144.208 258.414,147.600 260.439 L 149.000 261.274 148.145 260.393 C 147.125 259.342,144.063 258.895,143.319 259.688 M152.800 261.195 C 152.800 261.418,152.935 261.601,153.100 261.602 C 153.750 261.607,159.132 267.054,159.323 267.900 C 159.434 268.395,159.435 268.800,159.324 268.800 C 159.007 268.800,156.630 267.083,156.322 266.631 C 156.169 266.407,155.941 266.326,155.815 266.452 C 155.689 266.578,156.534 267.421,157.693 268.325 C 159.991 270.118,160.258 270.036,159.630 267.730 C 159.228 266.251,152.800 260.102,152.800 261.195 M149.200 261.346 C 149.200 261.427,150.550 262.609,152.200 263.974 C 153.850 265.339,155.200 266.263,155.200 266.028 C 155.200 265.792,155.065 265.600,154.900 265.600 C 154.735 265.600,153.851 264.925,152.937 264.100 C 149.963 261.418,149.200 260.856,149.200 261.346 M304.113 265.402 C 302.999 267.271,302.219 268.800,302.380 268.800 C 302.541 268.800,303.159 267.945,303.754 266.900 C 304.349 265.855,305.196 264.393,305.636 263.652 C 306.077 262.911,306.370 262.237,306.288 262.154 C 306.205 262.072,305.227 263.534,304.113 265.402 M137.229 267.454 C 135.996 269.021,136.135 271.120,137.584 272.815 C 138.235 273.577,138.775 274.093,138.784 273.962 C 138.793 273.831,138.350 273.201,137.800 272.562 C 136.335 270.858,136.428 268.784,138.031 267.436 C 138.795 266.793,139.033 266.400,138.660 266.400 C 138.329 266.400,137.685 266.874,137.229 267.454 M141.546 267.016 C 143.253 267.757,143.559 267.756,142.576 267.013 C 142.149 266.690,141.440 266.427,141.000 266.428 C 140.446 266.430,140.614 266.611,141.546 267.016 M144.423 267.078 C 144.436 267.255,145.627 268.390,147.070 269.600 C 148.513 270.810,150.797 272.770,152.147 273.955 C 153.496 275.140,155.749 277.120,157.153 278.355 C 162.117 282.719,162.400 282.953,162.400 282.696 C 162.400 282.571,160.382 280.698,157.915 278.534 C 146.677 268.677,144.399 266.742,144.423 267.078 M144.370 268.932 C 145.389 270.054,145.608 270.193,145.587 269.700 C 145.581 269.535,145.086 269.054,144.487 268.632 L 143.400 267.864 144.370 268.932 M299.393 272.443 C 293.136 280.998,284.586 287.641,276.571 290.175 C 274.705 290.766,274.470 290.984,273.632 292.908 C 271.026 298.893,265.019 304.670,256.918 308.982 C 255.867 309.542,255.240 310.000,255.526 310.000 C 259.292 310.000,270.169 300.348,273.546 294.009 C 275.119 291.058,275.301 290.870,277.006 290.440 C 283.516 288.801,292.540 282.013,298.323 274.405 C 299.575 272.758,300.915 271.059,301.300 270.630 C 301.917 269.942,302.219 269.200,301.883 269.200 C 301.818 269.200,300.698 270.659,299.393 272.443 M146.016 270.230 C 146.025 270.434,146.945 271.320,148.061 272.200 C 149.177 273.080,151.285 274.910,152.745 276.266 C 154.205 277.622,155.454 278.678,155.520 278.613 C 155.672 278.462,151.386 274.367,149.800 273.149 C 149.140 272.642,148.508 272.131,148.397 272.014 C 147.441 271.009,146.003 269.932,146.016 270.230 M140.006 275.400 C 141.360 277.043,143.262 278.871,143.437 278.697 C 143.516 278.618,142.553 277.574,141.299 276.377 C 140.044 275.179,139.462 274.740,140.006 275.400 M144.014 279.286 C 143.990 279.770,146.460 282.406,147.355 282.851 C 147.937 283.140,147.854 282.980,147.088 282.336 C 146.477 281.821,145.538 280.860,145.003 280.200 C 144.467 279.540,144.022 279.129,144.014 279.286 M159.575 282.103 C 160.551 283.137,161.417 283.916,161.499 283.834 C 161.661 283.673,160.307 282.276,158.763 281.011 C 158.233 280.578,158.599 281.069,159.575 282.103 M152.400 288.072 C 158.391 293.845,163.402 298.254,165.400 299.512 C 166.280 300.066,167.125 300.712,167.278 300.948 C 167.431 301.184,167.669 301.264,167.806 301.127 C 167.944 300.990,167.189 300.287,166.128 299.565 C 165.068 298.843,164.110 298.151,164.000 298.026 C 163.890 297.902,162.720 296.904,161.400 295.809 C 158.581 293.470,155.860 290.971,151.484 286.700 C 149.737 284.995,148.194 283.609,148.054 283.620 C 147.914 283.630,149.870 285.634,152.400 288.072 M163.622 283.861 C 163.648 284.250,165.979 286.169,166.158 285.947 C 166.222 285.866,165.674 285.287,164.938 284.661 C 164.202 284.034,163.610 283.674,163.622 283.861 M165.592 287.392 C 166.559 288.377,167.428 289.105,167.524 289.009 C 167.736 288.798,164.554 285.600,164.132 285.600 C 163.968 285.600,164.625 286.406,165.592 287.392 M167.640 287.709 C 168.432 288.419,169.616 289.450,170.270 290.000 C 170.924 290.550,171.592 291.225,171.753 291.500 C 172.307 292.442,171.400 291.993,169.927 290.597 C 169.116 289.828,168.311 289.200,168.138 289.200 C 167.748 289.200,171.683 292.757,172.100 292.782 C 173.125 292.843,172.077 291.004,170.139 289.341 C 168.896 288.273,167.649 287.175,167.368 286.900 C 167.087 286.625,166.709 286.404,166.529 286.409 C 166.348 286.414,166.848 286.999,167.640 287.709 M168.571 301.554 C 168.805 301.932,172.188 303.605,172.696 303.593 C 172.995 303.586,168.824 301.200,168.512 301.200 C 168.425 301.200,168.451 301.359,168.571 301.554 M174.346 304.180 C 175.086 304.521,176.256 304.779,176.946 304.754 L 178.200 304.708 176.800 304.410 C 176.030 304.247,174.860 303.988,174.200 303.837 C 173.021 303.565,173.024 303.571,174.346 304.180 M184.782 304.696 C 185.543 304.788,186.678 305.228,187.306 305.675 C 187.933 306.122,188.533 306.400,188.640 306.293 C 189.061 305.873,185.879 304.404,184.677 304.464 L 183.400 304.528 184.782 304.696 M180.505 305.087 C 181.114 305.179,182.014 305.177,182.505 305.082 C 182.997 304.987,182.500 304.911,181.400 304.914 C 180.300 304.917,179.897 304.995,180.505 305.087 M189.200 306.803 C 189.200 307.142,195.162 310.171,195.387 309.946 C 195.474 309.860,194.117 309.054,192.372 308.155 C 190.628 307.257,189.200 306.649,189.200 306.803 M198.200 311.102 C 198.420 311.333,199.474 311.814,200.542 312.170 C 202.614 312.863,204.720 314.228,207.563 316.724 L 209.325 318.271 206.063 321.490 C 204.268 323.261,202.800 324.849,202.800 325.021 C 202.800 325.192,204.375 323.771,206.300 321.862 L 209.800 318.392 208.200 316.885 C 205.105 313.968,202.818 312.327,201.117 311.804 C 200.173 311.513,199.040 311.142,198.600 310.979 C 198.047 310.774,197.924 310.812,198.200 311.102 M251.780 311.125 C 251.234 311.593,247.453 312.692,243.344 313.577 C 241.395 313.997,240.284 314.354,240.875 314.370 C 242.706 314.421,252.206 311.905,252.980 311.164 C 253.460 310.704,252.315 310.667,251.780 311.125 M235.600 314.800 L 233.400 315.070 236.000 315.129 C 237.430 315.161,238.870 315.013,239.200 314.800 C 239.888 314.355,239.228 314.355,235.600 314.800 M231.227 316.171 C 230.725 316.706,230.379 317.302,230.457 317.496 C 230.712 318.125,234.024 320.927,233.789 320.315 C 233.664 319.989,233.030 319.329,232.381 318.849 C 230.971 317.807,230.919 317.351,232.070 316.126 C 232.548 315.617,232.759 315.200,232.539 315.200 C 232.319 315.200,231.729 315.637,231.227 316.171 M234.400 321.080 C 234.400 321.264,234.825 321.681,235.344 322.007 C 236.196 322.542,237.312 323.443,241.404 326.900 C 242.120 327.505,242.830 328.000,242.981 328.000 C 243.346 328.000,242.622 327.320,240.204 325.392 C 239.106 324.516,237.846 323.469,237.404 323.065 C 236.021 321.802,234.400 320.731,234.400 321.080 M193.493 333.768 C 188.712 338.450,184.800 342.434,184.800 342.620 C 184.800 342.806,188.355 339.423,192.700 335.102 C 197.045 330.781,201.034 326.874,201.564 326.420 C 202.094 325.966,202.451 325.518,202.358 325.424 C 202.264 325.330,198.275 329.085,193.493 333.768 M244.469 329.482 C 245.201 330.077,246.525 331.202,247.412 331.982 C 248.298 332.762,251.347 335.290,254.186 337.600 C 257.026 339.910,260.036 342.406,260.875 343.147 C 261.714 343.887,262.400 344.369,262.400 344.218 C 262.400 343.868,261.876 343.378,259.399 341.414 C 258.300 340.541,257.310 339.725,257.200 339.600 C 257.090 339.475,256.100 338.660,255.000 337.788 C 253.900 336.916,252.730 335.931,252.400 335.597 C 252.070 335.264,251.080 334.462,250.200 333.816 C 249.320 333.170,248.330 332.356,248.000 332.006 C 247.058 331.010,243.749 328.400,243.428 328.400 C 243.269 328.400,243.737 328.887,244.469 329.482 M213.868 336.824 C 210.311 340.404,207.746 343.079,208.170 342.767 C 208.593 342.455,211.517 339.625,214.668 336.478 L 220.396 330.756 221.898 331.876 C 222.724 332.492,223.490 333.098,223.600 333.224 C 223.710 333.350,225.870 335.138,228.400 337.199 C 232.362 340.426,237.764 344.964,238.400 345.600 C 238.510 345.710,238.960 346.049,239.400 346.354 C 240.541 347.144,237.317 344.103,234.995 342.200 C 233.922 341.320,232.404 340.050,231.622 339.378 C 230.840 338.705,229.660 337.746,229.000 337.245 C 228.340 336.745,227.168 335.765,226.397 335.067 C 224.770 333.598,221.642 331.087,220.868 330.629 C 220.500 330.410,218.353 332.310,213.868 336.824 M206.386 334.700 L 204.200 337.000 206.500 334.814 C 208.637 332.782,208.983 332.400,208.686 332.400 C 208.624 332.400,207.589 333.435,206.386 334.700 M208.589 336.900 L 205.800 339.800 208.700 337.011 C 211.394 334.420,211.783 334.000,211.489 334.000 C 211.428 334.000,210.123 335.305,208.589 336.900 M206.184 344.129 C 203.140 347.415,178.397 371.208,176.728 372.454 C 175.588 373.304,174.807 374.000,174.991 374.000 C 175.836 374.000,180.377 370.064,186.800 363.764 C 190.650 359.989,196.848 353.910,200.574 350.257 C 204.299 346.603,207.267 343.534,207.169 343.436 C 207.071 343.338,206.628 343.650,206.184 344.129 M176.452 350.426 C 172.630 354.172,169.576 357.309,169.664 357.397 C 169.752 357.485,172.979 354.417,176.835 350.579 C 180.691 346.740,183.745 343.603,183.623 343.608 C 183.500 343.612,180.273 346.680,176.452 350.426 M264.000 345.670 C 264.770 346.428,267.020 348.360,269.000 349.965 C 274.166 354.153,275.893 356.569,276.029 359.800 C 276.049 360.270,276.150 360.383,276.273 360.076 C 277.100 358.009,274.556 353.937,270.400 350.677 C 268.970 349.555,267.170 348.059,266.400 347.351 C 264.119 345.256,262.241 343.940,264.000 345.670 M240.800 347.370 C 241.130 347.788,242.857 349.316,244.637 350.765 C 246.417 352.214,249.454 354.750,251.386 356.400 C 255.537 359.946,256.800 360.940,256.800 360.661 C 256.800 360.548,254.595 358.598,251.900 356.327 C 243.755 349.464,240.168 346.570,240.800 347.370 M188.386 352.300 L 186.200 354.600 188.500 352.414 C 190.637 350.382,190.983 350.000,190.686 350.000 C 190.624 350.000,189.589 351.035,188.386 352.300 M191.200 353.800 C 190.228 354.790,189.523 355.600,189.633 355.600 C 189.743 355.600,190.628 354.790,191.600 353.800 C 192.572 352.810,193.277 352.000,193.167 352.000 C 193.057 352.000,192.172 352.810,191.200 353.800 M167.970 358.668 L 167.000 359.736 168.087 358.968 C 168.686 358.546,169.181 358.065,169.187 357.900 C 169.208 357.407,168.989 357.546,167.970 358.668 M165.275 361.700 C 163.670 364.047,162.795 365.828,162.828 366.680 C 162.844 367.076,163.098 366.742,163.394 365.938 C 164.054 364.144,165.027 362.549,166.348 361.100 C 166.899 360.495,167.145 360.000,166.894 360.000 C 166.643 360.000,165.915 360.765,165.275 361.700 M259.249 362.863 C 264.584 367.931,269.937 369.467,273.321 366.900 C 274.118 366.295,274.777 365.652,274.785 365.471 C 274.793 365.290,274.129 365.695,273.309 366.371 C 270.162 368.965,266.039 367.959,260.000 363.126 L 257.000 360.725 259.249 362.863 M275.988 361.622 C 275.746 362.074,275.618 362.655,275.704 362.911 C 275.789 363.168,276.062 362.798,276.309 362.089 C 276.817 360.632,276.649 360.388,275.988 361.622 M173.178 367.100 L 171.800 368.600 173.300 367.222 C 174.696 365.938,174.984 365.600,174.678 365.600 C 174.612 365.600,173.937 366.275,173.178 367.100 M162.816 370.914 C 162.751 373.857,170.772 377.510,172.206 375.191 C 172.372 374.922,171.905 374.870,170.848 375.039 C 167.540 375.568,164.537 374.116,163.363 371.420 C 163.029 370.653,162.826 370.465,162.816 370.914 " stroke="none" fill="#c69f68" fill-rule="evenodd"></path><path id="path6" d="M261.595 84.890 C 260.078 87.200,260.303 87.036,262.687 84.095 L 263.575 83.000 263.587 87.460 C 263.600 91.978,262.628 98.894,261.374 103.200 C 260.320 106.821,260.340 107.622,261.404 104.400 C 263.517 98.000,264.997 83.463,263.622 82.613 C 263.414 82.485,262.502 83.509,261.595 84.890 M255.000 93.412 C 250.825 98.397,246.120 102.957,240.149 107.806 C 234.262 112.586,232.680 114.184,237.800 110.178 C 245.591 104.083,260.427 89.200,258.712 89.200 C 258.610 89.200,256.939 91.095,255.000 93.412 M258.200 111.864 C 256.521 115.580,256.523 115.871,258.208 112.667 C 258.998 111.164,259.590 109.770,259.522 109.571 C 259.455 109.372,258.860 110.403,258.200 111.864 M230.800 114.811 C 228.930 116.119,226.275 117.852,224.901 118.662 C 223.526 119.472,222.472 120.205,222.557 120.290 C 222.847 120.581,234.400 113.048,234.400 112.569 C 234.400 112.296,234.353 112.326,230.800 114.811 M254.947 118.100 C 251.562 123.703,247.570 128.805,242.728 133.717 C 240.788 135.685,239.200 137.404,239.200 137.537 C 239.200 139.552,253.258 122.307,256.349 116.500 C 257.355 114.611,256.391 115.711,254.947 118.100 M219.500 121.829 C 218.895 122.157,218.400 122.510,218.400 122.613 C 218.400 122.999,219.032 122.757,220.000 122.000 C 221.189 121.070,221.011 121.009,219.500 121.829 M215.500 124.026 C 214.235 124.679,213.200 125.303,213.200 125.412 C 213.200 125.522,214.280 125.066,215.600 124.400 C 216.920 123.734,218.000 123.101,218.000 122.994 C 218.000 122.728,218.074 122.697,215.500 124.026 M208.800 127.400 C 206.930 128.368,205.537 129.169,205.704 129.180 C 206.013 129.200,212.428 126.105,212.755 125.778 C 213.302 125.231,211.802 125.846,208.800 127.400 M201.400 130.811 C 199.640 131.659,198.333 132.363,198.496 132.376 C 198.896 132.408,204.501 129.948,204.980 129.531 C 205.743 128.866,204.557 129.290,201.400 130.811 M196.200 133.014 C 195.540 133.317,195.270 133.566,195.600 133.568 C 195.930 133.570,196.650 133.314,197.200 133.000 C 198.465 132.277,197.789 132.287,196.200 133.014 M191.649 134.722 C 190.246 135.296,189.271 135.824,189.483 135.894 C 189.694 135.965,191.022 135.491,192.434 134.841 C 195.601 133.382,195.105 133.307,191.649 134.722 M184.600 137.414 C 182.985 138.154,183.951 138.155,185.654 137.416 C 186.394 137.094,186.730 136.839,186.400 136.848 C 186.070 136.857,185.260 137.112,184.600 137.414 M236.200 139.641 C 232.978 142.321,226.509 146.698,222.680 148.790 C 220.964 149.727,219.633 150.567,219.722 150.655 C 220.417 151.350,236.238 140.805,238.388 138.214 C 239.215 137.218,238.742 137.526,236.200 139.641 M176.200 140.021 C 174.220 140.642,172.960 141.147,173.400 141.144 C 173.840 141.141,175.730 140.631,177.600 140.011 C 179.470 139.391,180.730 138.885,180.400 138.888 C 180.070 138.890,178.180 139.400,176.200 140.021 M169.200 141.820 C 168.210 142.104,167.760 142.347,168.200 142.362 C 168.640 142.376,169.810 142.133,170.800 141.821 C 173.038 141.116,171.662 141.115,169.200 141.820 M164.600 142.800 C 163.522 143.074,163.502 143.106,164.400 143.113 C 164.950 143.117,165.850 142.976,166.400 142.800 C 167.744 142.369,166.292 142.369,164.600 142.800 M160.587 143.436 C 160.360 143.531,158.020 143.870,155.387 144.190 C 150.861 144.741,150.796 144.761,154.200 144.558 C 157.884 144.339,164.366 143.300,162.200 143.276 C 161.540 143.269,160.814 143.341,160.587 143.436 M119.200 144.138 C 119.200 144.817,126.779 152.157,129.306 153.925 C 131.955 155.778,131.674 155.254,128.900 153.168 C 126.124 151.080,119.368 144.499,119.681 144.186 C 119.803 144.063,121.406 144.151,123.241 144.381 C 125.077 144.612,127.304 144.779,128.190 144.753 C 129.075 144.727,127.730 144.471,125.200 144.183 C 119.243 143.506,119.200 143.506,119.200 144.138 M135.744 145.292 C 138.353 145.476,142.493 145.479,144.944 145.298 C 148.907 145.006,148.383 144.969,140.200 144.963 C 131.781 144.958,131.403 144.986,135.744 145.292 M217.629 151.411 C 217.095 151.705,215.162 152.618,213.332 153.442 C 211.503 154.266,210.077 155.010,210.162 155.096 C 210.344 155.277,218.416 151.663,218.980 151.147 C 219.542 150.633,218.772 150.784,217.629 151.411 M131.600 155.325 C 131.600 156.109,140.078 160.055,140.613 159.520 C 140.729 159.405,139.963 159.078,138.911 158.793 C 137.860 158.509,136.820 158.152,136.600 158.001 C 135.532 157.268,131.600 155.164,131.600 155.325 M205.886 156.301 C 204.393 156.853,203.259 157.393,203.367 157.500 C 203.565 157.699,209.600 155.614,209.600 155.346 C 209.600 155.048,208.529 155.323,205.886 156.301 M201.000 157.985 C 200.560 158.166,199.434 158.543,198.498 158.822 C 197.562 159.101,196.883 159.417,196.990 159.523 C 197.203 159.736,202.800 158.049,202.800 157.772 C 202.800 157.509,201.892 157.616,201.000 157.985 M142.200 160.011 C 143.988 160.624,150.760 162.006,151.744 161.959 C 152.498 161.922,146.211 160.497,142.400 159.840 C 141.016 159.602,141.013 159.604,142.200 160.011 M194.400 160.000 C 193.605 160.514,194.604 160.514,195.800 160.000 L 196.600 159.656 195.800 159.634 C 195.360 159.622,194.730 159.787,194.400 160.000 M188.600 161.027 C 187.280 161.314,184.313 161.753,182.006 162.001 C 177.991 162.435,176.364 162.800,178.450 162.800 C 179.886 162.800,188.178 161.648,191.200 161.028 C 193.036 160.652,193.388 160.497,192.400 160.500 C 191.630 160.502,189.920 160.739,188.600 161.027 M156.000 162.594 C 158.231 162.952,162.495 163.123,168.400 163.092 L 177.400 163.044 167.400 162.757 C 161.900 162.599,156.320 162.375,155.000 162.259 C 153.242 162.104,153.509 162.193,156.000 162.594 M293.800 232.242 L 291.800 232.790 293.600 232.535 C 294.590 232.395,296.300 232.153,297.400 231.996 L 299.400 231.713 297.600 231.704 C 296.610 231.699,294.900 231.941,293.800 232.242 M302.000 231.966 C 306.138 232.432,309.137 234.830,309.246 237.759 C 309.274 238.496,309.370 238.703,309.482 238.268 C 310.276 235.193,306.050 231.561,301.800 231.668 L 299.800 231.718 302.000 231.966 M290.000 233.200 C 289.176 233.464,289.141 233.526,289.800 233.554 C 290.240 233.573,290.870 233.413,291.200 233.200 C 291.901 232.747,291.414 232.747,290.000 233.200 M283.400 235.781 C 281.860 236.524,280.695 237.147,280.812 237.166 C 281.118 237.215,286.353 234.980,286.668 234.665 C 287.240 234.093,286.076 234.491,283.400 235.781 M278.200 238.321 C 275.823 239.635,271.200 242.746,271.200 243.030 C 271.200 243.140,272.235 242.529,273.500 241.672 C 274.765 240.814,276.835 239.531,278.100 238.818 C 279.365 238.106,280.400 237.451,280.400 237.362 C 280.400 237.112,280.331 237.142,278.200 238.321 M309.709 240.800 C 309.709 241.790,309.787 242.195,309.882 241.700 C 309.978 241.205,309.978 240.395,309.882 239.900 C 309.787 239.405,309.709 239.810,309.709 240.800 M267.980 245.248 C 263.500 248.805,258.063 254.519,256.608 257.200 C 256.161 258.025,256.714 257.416,258.608 255.000 C 261.253 251.624,264.051 248.836,267.500 246.138 C 270.405 243.866,271.125 243.200,270.680 243.200 C 270.614 243.200,269.399 244.122,267.980 245.248 M309.293 244.800 C 309.293 245.570,309.375 245.885,309.476 245.500 C 309.576 245.115,309.576 244.485,309.476 244.100 C 309.375 243.715,309.293 244.030,309.293 244.800 M307.661 250.487 C 306.929 252.749,306.242 254.870,306.135 255.200 C 305.961 255.733,305.987 255.733,306.370 255.200 C 306.931 254.420,309.268 247.203,309.111 246.733 C 309.045 246.535,308.392 248.224,307.661 250.487 M156.661 248.185 C 156.427 248.794,156.915 249.242,165.000 255.841 C 172.697 262.122,177.201 265.624,177.174 265.307 C 177.160 265.138,175.135 263.411,172.674 261.469 C 170.214 259.527,167.199 257.097,165.977 256.069 C 164.754 255.041,162.169 252.968,160.233 251.463 C 155.337 247.656,156.090 246.891,161.278 250.400 C 163.325 251.784,164.730 252.647,164.400 252.318 C 161.856 249.779,157.037 247.206,156.661 248.185 M167.440 254.680 C 169.217 256.286,169.867 256.781,173.000 258.920 C 176.821 261.529,174.172 259.211,169.755 256.080 C 167.800 254.695,166.758 254.065,167.440 254.680 M151.043 254.633 C 150.711 255.498,151.363 256.315,154.400 258.834 C 155.830 260.021,160.645 264.190,165.100 268.099 C 169.555 272.009,173.200 275.026,173.200 274.804 C 173.200 274.582,173.065 274.400,172.900 274.400 C 172.735 274.400,171.310 273.185,169.734 271.700 C 168.157 270.215,166.023 268.280,164.992 267.400 C 163.960 266.520,162.910 265.615,162.658 265.388 C 162.406 265.162,159.950 263.092,157.200 260.788 C 154.450 258.485,151.981 256.330,151.714 256.000 C 150.818 254.895,151.826 253.907,152.854 254.884 C 153.569 255.565,157.347 258.686,159.023 259.981 C 159.748 260.542,161.660 262.003,163.272 263.230 C 164.884 264.456,166.472 265.723,166.801 266.044 C 167.131 266.366,168.119 267.162,168.997 267.814 C 169.876 268.467,171.136 269.477,171.797 270.059 C 172.459 270.642,173.900 271.795,175.000 272.622 C 176.100 273.449,177.090 274.242,177.200 274.384 C 177.634 274.946,183.264 279.269,183.391 279.139 C 183.530 278.996,177.098 273.777,163.008 262.600 C 158.570 259.080,154.354 255.705,153.639 255.100 C 152.164 253.852,151.395 253.714,151.043 254.633 M304.480 258.680 C 303.784 260.147,303.285 261.419,303.372 261.505 C 303.458 261.592,304.101 260.464,304.800 259.000 C 305.499 257.536,305.998 256.264,305.908 256.175 C 305.819 256.085,305.176 257.213,304.480 258.680 M255.079 259.860 C 254.542 260.927,253.979 262.250,253.827 262.800 C 253.675 263.350,254.178 262.542,254.946 261.004 C 255.714 259.466,256.277 258.143,256.198 258.064 C 256.119 257.985,255.615 258.793,255.079 259.860 M176.000 261.090 C 176.000 261.276,176.495 261.723,177.100 262.084 C 177.705 262.445,178.853 263.339,179.652 264.071 C 180.451 264.802,181.711 265.879,182.452 266.465 C 184.114 267.779,185.342 268.839,187.356 270.699 C 188.212 271.489,188.842 271.947,188.756 271.716 C 188.383 270.712,176.000 260.397,176.000 261.090 M144.521 262.662 C 144.349 263.109,144.715 263.724,145.650 264.562 C 147.451 266.174,158.574 275.943,166.415 282.800 C 175.537 290.777,175.343 290.565,175.074 292.220 C 174.940 293.048,175.001 293.523,175.224 293.385 C 176.700 292.473,175.479 290.129,172.000 287.199 C 168.475 284.230,165.673 281.754,159.596 276.238 C 158.604 275.337,157.254 274.179,156.596 273.664 C 155.938 273.149,154.140 271.597,152.600 270.214 C 151.060 268.831,148.675 266.749,147.300 265.587 C 144.831 263.500,144.324 262.659,145.300 262.265 C 145.692 262.107,145.689 262.056,145.287 262.032 C 145.006 262.014,144.661 262.298,144.521 262.662 M299.607 267.086 C 293.721 276.069,284.451 284.430,278.200 286.394 C 277.320 286.670,276.420 287.075,276.200 287.293 C 275.628 287.860,277.301 287.324,280.277 285.985 C 287.187 282.877,298.079 271.688,302.750 262.900 C 303.855 260.820,302.733 262.315,299.607 267.086 M146.220 262.720 C 146.429 262.896,147.500 263.748,148.600 264.614 C 149.700 265.480,150.960 266.524,151.400 266.935 C 151.840 267.346,152.830 268.158,153.600 268.741 C 154.370 269.323,155.193 269.980,155.429 270.200 C 157.161 271.813,162.666 275.797,161.800 274.809 C 161.360 274.307,160.436 273.515,159.746 273.049 C 159.057 272.582,156.735 270.760,154.587 269.000 C 149.848 265.117,146.334 262.400,146.050 262.400 C 145.935 262.400,146.011 262.544,146.220 262.720 M252.978 265.378 C 252.827 266.181,252.794 266.927,252.904 267.037 C 253.014 267.147,253.227 266.581,253.378 265.778 C 253.528 264.975,253.562 264.228,253.452 264.118 C 253.342 264.008,253.128 264.575,252.978 265.378 M178.625 266.648 C 179.299 267.282,181.265 268.970,182.995 270.400 C 184.724 271.830,186.558 273.397,187.069 273.882 C 187.581 274.367,188.000 274.610,188.000 274.423 C 188.000 274.133,185.915 272.214,184.592 271.286 C 184.368 271.129,183.455 270.370,182.564 269.600 C 179.176 266.673,176.596 264.739,178.625 266.648 M252.534 270.800 C 252.534 272.450,252.605 273.125,252.691 272.300 C 252.778 271.475,252.778 270.125,252.691 269.300 C 252.605 268.475,252.534 269.150,252.534 270.800 M139.347 269.795 C 138.982 270.745,160.820 293.313,161.473 292.660 C 161.562 292.572,160.413 291.352,158.921 289.950 C 156.354 287.537,143.697 274.854,140.900 271.892 C 139.432 270.337,139.284 269.741,140.300 269.476 C 140.956 269.304,140.955 269.290,140.287 269.246 C 139.896 269.221,139.472 269.468,139.347 269.795 M143.075 271.457 C 144.216 272.526,146.623 274.660,148.424 276.200 C 150.226 277.740,152.086 279.360,152.558 279.800 C 153.884 281.035,162.761 288.736,166.020 291.478 C 166.669 292.024,167.200 292.381,167.200 292.271 C 167.200 292.107,162.366 287.794,157.200 283.348 C 156.650 282.875,153.947 280.533,151.193 278.144 C 148.440 275.755,145.020 272.836,143.593 271.657 L 141.000 269.514 143.075 271.457 M189.202 272.109 C 189.200 272.463,193.179 277.600,193.456 277.600 C 193.677 277.600,191.605 274.664,190.210 273.000 C 189.657 272.340,189.203 271.939,189.202 272.109 M252.978 277.400 C 252.978 279.068,253.105 280.111,253.261 279.717 C 253.416 279.323,253.544 278.280,253.544 277.400 C 253.544 276.520,253.416 275.477,253.261 275.083 C 253.105 274.689,252.978 275.732,252.978 277.400 M173.600 275.344 C 173.600 275.457,175.400 277.120,177.600 279.039 C 182.603 283.404,183.004 286.198,178.771 287.195 L 177.400 287.518 178.600 287.553 C 181.535 287.638,183.381 282.997,181.026 281.454 C 180.490 281.103,179.632 280.407,179.118 279.908 C 177.583 278.417,173.600 275.122,173.600 275.344 M188.000 276.156 C 188.000 277.521,186.806 278.811,185.190 279.191 C 183.882 279.499,183.867 279.521,184.931 279.559 C 186.380 279.612,188.400 277.673,188.400 276.231 C 188.400 275.664,188.310 275.200,188.200 275.200 C 188.090 275.200,188.000 275.630,188.000 276.156 M162.817 275.877 C 162.827 276.054,164.008 277.055,165.441 278.100 C 166.875 279.145,167.939 279.825,167.806 279.610 C 167.416 278.978,162.798 275.523,162.817 275.877 M193.627 278.400 C 193.626 278.730,193.890 279.349,194.213 279.776 C 194.960 280.764,194.952 280.115,194.200 278.800 C 193.868 278.220,193.628 278.052,193.627 278.400 M168.400 280.378 C 168.400 280.604,169.075 281.223,169.900 281.752 C 170.725 282.281,171.762 283.048,172.204 283.457 C 174.035 285.149,176.857 287.276,177.034 287.099 C 177.139 286.994,176.795 286.626,176.269 286.282 C 175.743 285.937,175.062 285.418,174.756 285.128 C 173.020 283.481,168.400 280.028,168.400 280.378 M194.833 280.874 C 194.815 281.025,194.998 281.655,195.241 282.274 C 195.483 282.893,195.747 285.396,195.827 287.836 C 195.960 291.924,196.507 294.826,197.044 294.290 C 197.165 294.168,197.078 293.720,196.850 293.294 C 196.623 292.869,196.360 290.468,196.267 287.960 C 196.133 284.357,195.053 279.023,194.833 280.874 M251.816 282.636 C 251.229 284.188,249.726 285.984,244.648 291.200 L 238.221 297.800 244.539 291.600 C 250.483 285.768,253.124 282.372,252.702 281.105 C 252.622 280.867,252.224 281.556,251.816 282.636 M260.200 287.574 C 258.880 287.941,257.440 288.470,257.000 288.751 L 256.200 289.260 257.000 288.985 C 260.049 287.933,262.384 287.544,264.200 287.785 C 269.442 288.479,269.126 288.195,263.400 287.065 C 262.960 286.978,261.520 287.207,260.200 287.574 M272.800 287.817 L 270.600 288.323 272.224 288.361 C 273.116 288.383,274.196 288.136,274.624 287.813 C 275.051 287.490,275.310 287.245,275.200 287.268 C 275.090 287.291,274.010 287.538,272.800 287.817 M254.000 290.291 C 253.230 290.886,248.820 295.097,244.200 299.649 C 239.580 304.200,234.010 309.652,231.822 311.762 C 229.633 313.873,228.003 315.600,228.199 315.600 C 228.395 315.600,231.985 312.217,236.177 308.082 C 246.928 297.479,254.466 290.281,255.400 289.724 C 255.840 289.461,256.020 289.238,255.800 289.228 C 255.580 289.217,254.770 289.696,254.000 290.291 M167.600 292.525 C 167.600 294.558,172.401 296.226,174.056 294.768 L 175.000 293.936 174.011 294.568 C 172.824 295.326,171.064 295.389,170.311 294.700 C 168.245 292.811,167.600 292.293,167.600 292.525 M162.603 293.545 C 167.312 299.129,178.709 303.639,184.000 302.013 C 184.625 301.821,183.649 301.713,181.400 301.725 C 174.889 301.761,170.344 299.735,162.803 293.433 L 161.806 292.600 162.603 293.545 M197.218 294.881 C 197.133 296.230,199.757 299.314,203.200 301.912 C 203.970 302.493,205.508 303.785,206.617 304.784 C 207.727 305.783,209.797 307.550,211.217 308.710 C 212.638 309.871,215.407 312.166,217.371 313.810 C 219.334 315.455,221.089 316.800,221.271 316.800 C 221.769 316.800,221.665 318.175,221.127 318.713 C 220.866 318.974,220.752 319.285,220.872 319.406 C 220.993 319.526,221.389 319.172,221.751 318.618 C 222.562 317.381,222.933 317.790,215.396 311.616 C 202.882 301.364,198.952 297.848,198.005 296.057 C 197.582 295.255,197.227 294.727,197.218 294.881 M230.477 304.959 C 222.644 312.699,222.942 312.041,226.162 314.463 C 227.593 315.540,227.548 315.462,225.800 313.843 L 223.800 311.991 230.972 304.996 C 234.916 301.148,238.003 298.000,237.832 298.000 C 237.661 298.000,234.351 301.131,230.477 304.959 M185.463 301.100 C 185.362 301.265,186.836 301.408,188.740 301.419 C 190.704 301.429,192.589 301.651,193.100 301.933 C 193.595 302.205,194.000 302.278,194.000 302.094 C 194.000 301.116,186.023 300.187,185.463 301.100 M195.400 303.029 C 195.840 303.361,196.560 303.943,197.000 304.323 C 197.440 304.703,199.060 306.029,200.600 307.271 C 202.140 308.513,204.075 310.098,204.900 310.794 C 205.725 311.489,206.391 311.910,206.381 311.729 C 206.370 311.548,205.354 310.590,204.124 309.600 C 202.893 308.610,201.133 307.170,200.213 306.400 C 196.164 303.012,195.377 302.410,195.000 302.418 C 194.780 302.422,194.960 302.697,195.400 303.029 M208.997 314.134 C 210.315 315.347,211.459 316.275,211.539 316.195 C 211.701 316.033,209.369 313.924,207.689 312.713 C 207.090 312.281,207.679 312.921,208.997 314.134 M212.000 316.538 C 212.000 316.862,218.292 322.000,218.689 322.000 C 218.893 322.000,219.483 321.550,220.000 321.000 C 220.517 320.450,220.768 320.000,220.558 320.000 C 220.348 320.000,219.917 320.360,219.600 320.800 C 218.746 321.985,218.750 321.987,215.463 319.084 C 213.815 317.629,212.000 316.294,212.000 316.538 M225.298 320.100 C 224.614 320.957,225.296 321.892,228.602 324.623 C 230.361 326.076,232.205 327.609,232.700 328.030 C 233.195 328.450,233.600 328.651,233.600 328.475 C 233.600 328.299,231.809 326.725,229.620 324.978 C 225.849 321.966,224.463 320.000,226.111 320.000 C 226.801 320.000,231.737 323.632,233.200 325.217 C 233.563 325.610,247.667 337.384,248.744 338.193 C 249.325 338.629,250.430 339.559,251.200 340.260 C 251.970 340.961,253.140 341.955,253.800 342.467 C 254.460 342.980,256.800 344.909,259.000 346.754 C 261.200 348.598,264.944 351.724,267.320 353.700 C 270.092 356.005,271.596 357.526,271.516 357.942 C 271.290 359.114,270.212 358.850,268.125 357.112 C 266.994 356.170,265.727 355.130,265.309 354.800 C 264.891 354.470,260.809 351.050,256.237 347.200 C 248.994 341.101,240.613 334.135,235.415 329.893 C 234.543 329.182,233.972 328.829,234.145 329.109 C 234.317 329.390,237.560 332.180,241.351 335.309 C 245.142 338.439,251.997 344.150,256.585 348.000 C 270.862 359.982,270.341 359.605,271.554 358.837 C 272.452 358.268,271.761 356.616,270.105 355.372 C 269.277 354.750,266.017 352.072,262.859 349.420 C 259.702 346.769,255.909 343.610,254.431 342.400 C 252.953 341.190,247.452 336.600,242.208 332.200 C 226.211 318.779,226.302 318.844,225.298 320.100 M208.985 332.338 C 205.033 336.226,195.095 345.958,186.900 353.966 C 175.565 365.041,172.000 368.752,172.000 369.475 C 172.000 370.688,172.952 371.057,174.103 370.292 C 175.202 369.561,174.883 369.868,194.941 350.213 C 203.928 341.406,212.703 332.849,214.441 331.198 C 217.972 327.842,217.863 328.052,216.885 326.444 L 216.170 325.268 208.985 332.338 M209.771 335.132 C 205.607 339.199,198.870 345.770,194.800 349.734 C 190.730 353.698,184.302 359.987,180.515 363.709 C 176.729 367.432,173.399 370.400,173.115 370.305 C 171.593 369.798,172.709 368.435,182.270 359.112 C 187.732 353.787,195.800 345.897,200.200 341.579 C 216.458 325.623,216.090 325.950,216.756 326.901 C 217.315 327.699,216.987 328.085,209.771 335.132 " stroke="none" fill="#caa5a5" fill-rule="evenodd"></path><path id="path7" d="M261.510 104.200 C 261.370 104.860,261.151 105.760,261.022 106.200 C 260.894 106.640,261.070 106.394,261.414 105.653 C 261.759 104.912,261.978 104.012,261.903 103.653 C 261.823 103.275,261.657 103.506,261.510 104.200 M257.302 114.574 C 252.629 124.051,243.552 134.614,233.726 142.008 C 229.280 145.354,228.661 145.872,229.809 145.284 C 232.447 143.933,239.961 137.714,243.928 133.600 C 249.978 127.325,259.254 113.963,258.705 112.315 C 258.641 112.123,258.010 113.139,257.302 114.574 M118.800 144.433 C 118.800 146.007,130.465 155.692,134.888 157.789 C 136.373 158.494,136.132 158.320,131.056 155.030 C 128.858 153.606,125.685 150.971,123.100 148.423 C 120.735 146.092,118.800 144.297,118.800 144.433 M227.211 146.620 C 226.447 147.159,225.997 147.599,226.211 147.598 C 226.425 147.597,227.140 147.153,227.800 146.612 C 229.341 145.349,229.005 145.353,227.211 146.620 M224.470 148.236 C 223.970 148.586,221.095 150.109,218.081 151.621 C 215.066 153.133,212.768 154.377,212.972 154.385 C 213.526 154.407,223.640 149.277,224.800 148.386 C 226.007 147.459,225.748 147.341,224.470 148.236 M209.600 155.416 C 208.390 155.937,207.670 156.360,208.000 156.357 C 208.330 156.354,209.500 155.927,210.600 155.409 C 213.199 154.185,212.450 154.190,209.600 155.416 M201.800 158.214 C 200.185 158.954,201.151 158.955,202.854 158.216 C 203.594 157.894,203.930 157.639,203.600 157.648 C 203.270 157.657,202.460 157.912,201.800 158.214 M142.200 160.400 C 142.640 160.589,143.270 160.744,143.600 160.744 C 143.978 160.744,143.904 160.617,143.400 160.400 C 142.960 160.211,142.330 160.056,142.000 160.056 C 141.622 160.056,141.696 160.183,142.200 160.400 M194.400 160.400 C 193.576 160.664,193.541 160.726,194.200 160.754 C 194.640 160.773,195.270 160.613,195.600 160.400 C 196.301 159.947,195.814 159.947,194.400 160.400 M147.200 161.600 C 147.750 161.776,148.650 161.917,149.200 161.913 C 150.098 161.906,150.078 161.874,149.000 161.600 C 147.308 161.169,145.856 161.169,147.200 161.600 M188.200 161.600 C 187.122 161.874,187.102 161.906,188.000 161.913 C 188.550 161.917,189.450 161.776,190.000 161.600 C 191.344 161.169,189.892 161.169,188.200 161.600 M154.600 162.785 C 155.822 163.111,159.070 163.320,158.767 163.053 C 158.675 162.972,157.430 162.807,156.000 162.685 C 154.362 162.546,153.844 162.582,154.600 162.785 M179.000 162.800 L 177.000 163.074 179.000 163.097 C 180.100 163.110,181.450 162.976,182.000 162.800 L 183.000 162.480 182.000 162.503 C 181.450 162.515,180.100 162.649,179.000 162.800 M164.521 163.498 C 166.677 163.571,170.097 163.570,172.121 163.498 C 174.144 163.425,172.380 163.366,168.200 163.367 C 164.020 163.367,162.364 163.426,164.521 163.498 M294.040 229.458 C 285.241 231.365,270.633 238.746,266.400 243.424 C 265.220 244.728,265.966 244.384,268.200 242.594 C 282.175 231.394,302.570 226.062,308.952 231.939 C 318.215 240.469,304.561 271.960,286.000 284.874 C 283.113 286.883,279.049 288.887,276.433 289.591 C 275.490 289.845,274.822 290.156,274.948 290.281 C 275.074 290.407,276.031 290.271,277.075 289.979 C 298.498 283.981,321.345 242.093,309.072 231.317 C 306.304 228.887,300.173 228.129,294.040 229.458 M294.738 231.423 C 279.667 234.433,261.387 247.193,254.860 259.259 C 252.302 263.987,251.903 266.917,252.415 277.200 C 252.684 282.613,252.745 282.539,228.500 306.190 C 222.146 312.388,222.138 312.434,226.697 315.561 C 228.314 316.669,227.426 317.325,236.861 308.057 C 255.763 289.492,255.726 289.522,260.925 288.375 C 262.863 287.947,263.595 287.955,265.325 288.425 C 279.352 292.234,298.178 277.019,307.237 254.555 C 314.238 237.193,309.525 228.471,294.738 231.423 M305.107 232.219 C 315.082 236.387,308.273 260.207,292.436 276.545 C 282.843 286.442,274.966 289.602,264.334 287.817 C 262.114 287.444,259.086 288.062,256.200 289.476 C 254.183 290.464,252.045 292.452,236.177 308.088 C 227.643 316.499,228.105 316.254,225.389 313.810 L 223.400 312.019 237.101 298.510 C 252.972 282.860,253.045 282.759,252.811 277.000 C 252.386 266.550,252.720 264.335,255.490 259.200 C 263.963 243.496,293.567 227.397,305.107 232.219 M154.875 246.416 C 153.631 247.575,153.738 249.334,155.143 250.804 C 156.644 252.374,157.164 252.348,155.836 250.769 C 154.556 249.248,154.492 247.518,155.675 246.416 C 156.157 245.967,156.371 245.600,156.151 245.600 C 155.931 245.600,155.357 245.967,154.875 246.416 M156.267 247.467 C 155.243 248.490,155.990 249.253,165.213 256.600 C 188.493 275.146,188.893 275.543,186.618 277.818 C 184.942 279.494,184.534 279.307,177.600 273.670 C 155.893 256.024,151.534 252.826,150.788 254.006 C 150.002 255.249,150.518 256.012,154.474 259.455 C 161.221 265.325,168.987 272.144,169.200 272.385 C 169.435 272.651,174.431 276.952,176.187 278.400 C 181.135 282.479,181.987 284.049,180.218 285.818 C 178.398 287.639,179.694 288.478,160.267 272.891 C 146.855 262.128,145.716 261.316,144.626 261.735 C 143.035 262.345,143.790 263.542,148.200 267.398 C 149.960 268.937,153.110 271.733,155.200 273.610 C 157.290 275.488,160.260 278.096,161.800 279.406 C 163.340 280.716,164.690 281.887,164.800 282.007 C 164.910 282.127,167.106 284.075,169.680 286.336 C 174.638 290.690,175.056 291.274,174.418 292.952 C 173.298 295.897,171.702 295.404,165.964 290.339 C 163.634 288.283,157.976 283.360,153.391 279.400 C 148.805 275.440,144.321 271.551,143.427 270.757 C 141.007 268.610,140.045 268.183,139.301 268.927 C 138.100 270.129,139.201 271.536,149.116 281.476 C 168.092 300.500,175.739 304.887,185.266 302.214 C 190.833 300.652,192.999 301.524,201.800 308.873 C 205.320 311.812,210.501 316.140,213.313 318.491 C 219.014 323.258,218.866 323.225,221.178 320.229 C 223.558 317.144,224.484 318.397,212.583 308.600 C 198.239 296.793,198.355 296.918,197.055 292.000 C 196.557 290.119,196.467 289.990,196.436 291.109 C 196.416 291.829,196.910 293.542,197.533 294.917 C 198.880 297.888,200.333 299.244,215.600 311.777 C 223.006 317.857,222.670 317.358,220.951 319.728 C 218.864 322.603,219.197 322.744,210.110 315.142 C 205.546 311.324,200.910 307.488,199.806 306.617 C 198.703 305.747,197.351 304.621,196.802 304.115 C 194.087 301.615,188.793 300.571,184.827 301.753 C 179.579 303.317,172.529 301.430,166.487 296.845 C 159.757 291.739,139.038 271.336,139.284 270.058 C 139.634 268.244,140.435 268.788,151.200 278.143 C 153.950 280.532,156.650 282.875,157.200 283.349 C 157.750 283.823,160.371 286.098,163.023 288.405 C 170.653 295.040,170.863 295.200,171.975 295.200 C 174.083 295.200,175.679 292.938,175.025 290.879 C 174.896 290.472,172.318 287.979,169.295 285.338 C 166.273 282.697,161.280 278.317,158.200 275.604 C 155.120 272.892,150.747 269.053,148.483 267.072 C 144.684 263.749,143.828 262.523,145.027 262.124 C 145.589 261.937,147.910 263.530,152.421 267.200 C 157.754 271.538,159.317 272.798,161.686 274.668 C 164.485 276.877,172.598 283.348,174.546 284.926 C 177.198 287.076,177.372 287.174,178.519 287.187 C 180.028 287.204,181.600 285.483,181.600 283.814 C 181.600 282.595,169.286 271.281,154.640 259.045 C 151.354 256.299,150.708 255.506,151.043 254.633 C 151.456 253.555,152.105 253.889,156.622 257.500 C 159.030 259.425,163.520 263.005,166.600 265.454 C 169.680 267.904,174.802 271.999,177.982 274.554 C 184.305 279.635,185.227 280.009,187.018 278.218 C 188.306 276.931,188.322 275.064,187.055 273.882 C 185.213 272.162,181.698 269.259,173.400 262.602 C 157.758 250.054,156.395 248.879,156.661 248.185 C 157.040 247.197,157.634 247.481,162.801 251.126 C 189.038 269.633,196.006 277.024,196.152 286.498 C 196.178 288.203,196.362 289.598,196.559 289.598 C 197.637 289.603,196.083 281.125,194.473 278.216 C 190.113 270.339,158.687 245.046,156.267 247.467 M149.711 252.382 C 147.002 254.906,147.904 256.620,155.200 262.818 C 158.955 266.008,159.269 266.235,158.986 265.557 C 158.859 265.250,157.222 263.740,155.350 262.200 C 150.244 258.001,148.668 256.183,148.995 254.870 C 149.710 252.007,152.086 251.597,155.013 253.831 C 156.044 254.617,156.811 255.022,156.719 254.731 C 156.058 252.642,151.185 251.010,149.711 252.382 M143.100 260.446 C 140.554 262.346,141.554 264.430,147.400 269.407 C 151.370 272.787,151.404 272.816,158.218 278.797 C 163.478 283.413,165.155 284.899,166.800 286.400 C 169.166 288.558,170.255 289.451,171.600 290.333 C 172.629 291.008,172.480 290.794,171.035 289.526 C 169.955 288.577,167.795 286.630,166.235 285.199 C 164.676 283.769,162.140 281.521,160.600 280.204 C 159.060 278.887,156.070 276.277,153.956 274.405 C 151.842 272.532,148.666 269.768,146.899 268.262 C 142.972 264.917,142.044 263.439,142.846 261.808 C 144.087 259.281,146.160 259.762,151.000 263.700 C 157.489 268.980,162.672 272.846,160.000 270.414 C 157.624 268.251,148.835 261.210,147.482 260.384 C 145.850 259.390,144.490 259.409,143.100 260.446 M138.367 267.307 C 135.726 269.082,136.112 270.825,140.079 275.036 C 147.703 283.127,156.813 292.003,161.400 295.809 C 162.720 296.904,163.890 297.895,164.000 298.012 C 165.543 299.645,172.082 303.230,175.000 304.043 C 177.095 304.627,184.914 304.819,185.433 304.300 C 186.040 303.693,185.275 303.627,181.984 304.002 C 179.973 304.231,178.131 304.242,177.409 304.028 C 167.952 301.232,163.737 298.189,149.400 283.810 C 137.076 271.449,136.061 269.997,138.229 267.829 C 140.037 266.021,141.576 267.055,156.052 279.807 C 161.875 284.936,164.627 287.200,165.040 287.200 C 165.220 287.200,164.572 286.525,163.598 285.700 C 162.625 284.875,160.922 283.381,159.814 282.380 C 158.706 281.379,157.170 280.055,156.400 279.436 C 155.630 278.818,154.280 277.655,153.400 276.853 C 152.520 276.051,150.543 274.316,149.007 272.997 C 147.471 271.679,145.521 269.970,144.674 269.200 C 141.761 266.552,140.192 266.082,138.367 267.307 M168.400 290.357 C 171.473 293.260,172.871 293.806,173.112 292.200 C 173.230 291.410,173.224 291.410,172.615 292.178 C 172.012 292.937,171.969 292.928,170.699 291.756 C 169.985 291.097,168.500 289.874,167.400 289.040 C 165.839 287.857,166.059 288.146,168.400 290.357 M204.372 313.466 C 205.346 314.310,206.966 315.764,207.972 316.697 L 209.800 318.395 205.200 322.871 C 166.504 360.523,165.634 361.402,164.152 364.327 C 159.574 373.361,168.495 378.729,177.147 372.146 C 178.717 370.951,192.907 357.255,212.526 338.000 C 216.448 334.150,219.894 330.867,220.184 330.705 C 220.697 330.418,223.271 332.223,226.400 335.064 C 227.170 335.763,228.340 336.745,229.000 337.245 C 229.660 337.746,230.840 338.705,231.622 339.378 C 232.404 340.050,233.844 341.258,234.822 342.062 C 235.800 342.866,237.050 343.922,237.600 344.407 C 238.150 344.893,240.850 347.145,243.600 349.412 C 246.350 351.678,251.836 356.239,255.791 359.547 C 265.295 367.496,268.570 368.980,272.321 367.041 C 274.707 365.807,276.577 361.984,275.996 359.528 L 275.682 358.200 275.639 359.600 C 275.438 366.118,270.396 368.977,264.710 365.799 C 263.288 365.004,254.307 357.776,248.363 352.641 C 247.572 351.959,246.582 351.126,246.163 350.792 C 244.455 349.430,238.586 344.599,238.400 344.402 C 238.198 344.187,232.887 339.681,231.396 338.459 C 226.978 334.839,223.660 332.072,223.000 331.459 C 220.268 328.922,223.153 326.736,202.200 347.220 C 178.627 370.266,176.554 372.217,174.618 373.166 C 166.213 377.288,160.614 371.759,165.088 363.755 C 166.274 361.632,167.855 360.054,206.100 322.831 C 211.148 317.918,211.045 318.382,207.706 315.600 C 204.517 312.943,201.641 311.102,204.372 313.466 M230.675 315.922 C 230.084 316.539,229.600 317.226,229.600 317.450 C 229.600 317.768,247.805 333.249,253.756 337.991 C 255.764 339.591,267.326 349.304,268.200 350.124 C 268.640 350.537,269.748 351.396,270.663 352.031 C 271.577 352.667,273.062 354.290,273.963 355.639 C 274.863 356.988,275.600 357.879,275.600 357.619 C 275.600 356.085,273.415 353.556,269.000 349.979 C 267.020 348.375,265.310 346.956,265.200 346.826 C 264.866 346.431,259.630 342.045,254.187 337.600 C 251.358 335.290,248.212 332.680,247.196 331.800 C 242.809 328.001,240.622 326.162,239.838 325.614 C 239.377 325.292,238.640 324.688,238.200 324.273 C 237.760 323.858,236.770 323.042,236.000 322.459 C 235.230 321.877,233.909 320.770,233.065 320.000 C 232.221 319.230,231.276 318.456,230.965 318.280 C 230.134 317.809,230.270 317.180,231.475 315.922 C 232.066 315.305,232.370 314.800,232.150 314.800 C 231.930 314.800,231.266 315.305,230.675 315.922 M216.605 325.192 C 216.305 325.677,216.924 326.879,217.863 327.633 C 218.429 328.088,218.405 327.962,217.741 327.000 C 217.286 326.340,216.993 325.575,217.090 325.300 C 217.299 324.708,216.952 324.630,216.605 325.192 " stroke="none" fill="#8a8c7f" fill-rule="evenodd"></path><path id="path8" d="M291.659 46.817 C 281.340 48.288,271.461 57.270,264.928 71.121 C 263.922 73.254,262.502 76.260,261.774 77.800 C 260.525 80.439,258.095 84.088,254.022 89.440 C 245.274 100.936,228.198 114.062,210.200 123.122 C 173.765 141.464,144.826 145.847,108.600 138.510 C 101.073 136.986,90.750 136.915,87.907 138.367 C 81.953 141.410,79.985 147.461,83.008 153.423 C 83.783 154.950,84.871 157.641,85.425 159.402 C 86.803 163.780,90.145 168.219,97.815 175.859 C 112.232 190.220,130.631 200.192,153.400 205.983 C 162.592 208.321,161.825 207.422,160.007 213.714 C 157.430 222.632,155.195 244.008,156.740 244.963 C 156.927 245.079,157.116 242.254,157.159 238.687 C 157.202 235.119,157.404 231.480,157.609 230.600 C 157.813 229.720,157.985 228.240,157.990 227.311 C 158.004 224.910,158.881 220.799,161.578 210.489 C 162.040 208.722,162.671 208.041,163.617 208.289 C 164.559 208.535,165.600 207.767,165.600 206.825 C 165.600 206.149,163.320 204.800,162.178 204.800 C 157.641 204.800,138.368 198.329,128.200 193.392 C 97.467 178.470,74.987 147.609,89.971 140.913 C 91.844 140.076,99.257 140.087,104.200 140.933 C 106.180 141.272,109.870 141.907,112.400 142.344 C 136.570 146.520,161.241 144.926,182.600 137.807 C 184.646 137.126,192.749 134.108,193.800 133.636 C 194.240 133.439,196.473 132.499,198.763 131.548 C 202.331 130.066,202.788 129.775,201.963 129.515 C 201.229 129.283,201.313 129.256,202.316 129.399 C 203.040 129.502,203.940 129.420,204.316 129.217 C 204.692 129.014,207.070 127.861,209.600 126.654 C 212.130 125.446,215.730 123.607,217.600 122.565 C 219.470 121.524,221.360 120.475,221.800 120.234 C 225.718 118.091,227.642 116.622,226.939 116.311 C 226.360 116.054,226.409 116.024,227.164 116.171 C 228.560 116.443,234.435 112.394,233.343 111.914 C 232.774 111.664,232.835 111.632,233.604 111.777 C 234.306 111.910,235.027 111.624,236.004 110.825 C 236.772 110.196,238.570 108.756,240.000 107.625 C 245.629 103.170,252.441 96.366,252.186 95.453 C 252.008 94.815,252.047 94.744,252.341 95.170 C 252.660 95.633,252.947 95.488,253.867 94.404 C 256.439 91.372,259.319 87.667,260.710 85.600 C 261.524 84.390,262.710 82.783,263.345 82.029 C 263.980 81.275,264.766 80.015,265.091 79.229 C 275.308 54.525,289.816 44.466,303.443 52.637 C 309.284 56.139,312.584 61.308,314.655 70.200 C 316.502 78.130,314.913 103.855,311.987 113.400 C 311.785 114.060,311.159 116.130,310.597 118.000 C 309.436 121.861,308.962 123.072,305.841 130.142 C 301.888 139.095,291.893 152.703,283.345 160.767 C 281.615 162.399,278.899 164.970,277.310 166.480 C 274.241 169.396,265.701 175.915,258.717 180.674 C 255.382 182.946,254.454 183.784,254.287 184.674 C 254.171 185.293,253.796 186.520,253.455 187.400 C 251.768 191.752,253.036 208.107,255.889 218.800 C 256.211 220.010,256.628 221.720,256.814 222.600 C 257.204 224.441,259.007 230.029,259.783 231.799 C 260.072 232.460,260.721 234.080,261.224 235.400 C 263.071 240.245,264.843 244.091,265.106 243.827 C 265.201 243.732,264.018 240.538,262.477 236.728 C 260.936 232.917,259.482 229.170,259.245 228.400 C 258.825 227.033,257.505 222.598,256.805 220.200 C 254.880 213.603,253.507 203.303,253.485 195.297 C 253.464 187.490,253.385 187.678,257.916 184.746 C 293.952 161.431,313.033 135.525,317.387 104.000 C 317.736 101.470,318.288 97.600,318.612 95.400 C 320.050 85.657,319.231 71.900,316.765 64.390 C 313.087 53.186,301.902 45.357,291.659 46.817 M175.900 139.076 C 175.515 139.176,174.885 139.176,174.500 139.076 C 174.115 138.975,174.430 138.893,175.200 138.893 C 175.970 138.893,176.285 138.975,175.900 139.076 M122.700 142.687 C 122.095 142.778,121.105 142.778,120.500 142.687 C 119.895 142.595,120.390 142.520,121.600 142.520 C 122.810 142.520,123.305 142.595,122.700 142.687 M159.700 142.689 C 158.985 142.778,157.815 142.778,157.100 142.689 C 156.385 142.601,156.970 142.528,158.400 142.528 C 159.830 142.528,160.415 142.601,159.700 142.689 M146.874 143.499 C 143.065 143.565,136.945 143.565,133.274 143.499 C 129.603 143.433,132.720 143.379,140.200 143.380 C 147.680 143.380,150.683 143.434,146.874 143.499 M157.069 253.363 C 156.951 253.671,157.107 254.255,157.415 254.661 C 157.939 255.353,157.975 255.332,157.987 254.324 C 158.001 253.124,157.402 252.497,157.069 253.363 M160.000 267.753 C 160.000 268.509,161.168 270.965,161.411 270.722 C 161.599 270.534,160.652 267.719,160.274 267.341 C 160.123 267.190,160.000 267.376,160.000 267.753 M272.872 292.318 C 271.049 298.403,256.795 310.400,251.388 310.400 C 251.091 310.400,250.748 310.560,250.627 310.756 C 250.506 310.951,249.821 311.212,249.104 311.336 C 248.387 311.459,245.692 312.010,243.116 312.561 C 240.540 313.112,237.403 313.622,236.145 313.694 C 234.807 313.770,233.791 314.027,233.696 314.312 C 233.455 315.035,236.090 314.754,244.000 313.216 C 252.490 311.566,261.760 306.831,267.510 301.206 C 270.918 297.873,274.546 291.986,273.708 291.148 C 273.476 290.916,273.158 291.362,272.872 292.318 M236.175 296.100 L 235.000 297.400 236.300 296.225 C 237.015 295.579,237.600 294.994,237.600 294.925 C 237.600 294.616,237.270 294.888,236.175 296.100 M186.892 304.475 C 187.129 305.186,193.382 308.658,196.805 309.978 C 200.766 311.505,200.583 311.458,200.720 311.000 C 200.787 310.780,200.337 310.487,199.720 310.349 C 197.197 309.784,190.913 306.759,188.527 304.960 C 187.117 303.897,186.653 303.760,186.892 304.475 M223.723 320.096 C 221.564 322.898,220.021 325.110,219.888 325.592 C 219.806 325.892,221.572 327.512,226.220 331.400 C 227.273 332.280,228.508 333.263,228.967 333.585 C 229.425 333.907,230.430 334.748,231.200 335.453 C 231.970 336.158,233.140 337.151,233.800 337.661 C 234.460 338.170,235.691 339.219,236.535 339.993 C 237.379 340.767,238.369 341.565,238.735 341.766 C 239.101 341.967,239.490 342.245,239.600 342.383 C 239.710 342.521,241.150 343.766,242.800 345.150 C 244.450 346.534,246.610 348.353,247.600 349.192 C 248.590 350.032,250.750 351.823,252.400 353.174 C 254.050 354.524,256.288 356.387,257.374 357.315 C 258.460 358.242,259.810 359.354,260.374 359.786 C 260.938 360.218,261.670 360.856,262.000 361.205 C 262.330 361.553,263.227 362.279,263.994 362.819 C 269.100 366.411,273.600 365.223,273.600 360.282 C 273.600 358.135,271.850 355.157,270.037 354.219 C 269.434 353.907,268.385 353.145,267.706 352.526 C 267.027 351.907,265.811 350.860,265.004 350.200 C 264.196 349.540,262.785 348.266,261.868 347.370 C 260.196 345.736,257.452 343.600,257.026 343.600 C 256.900 343.600,256.154 342.888,255.368 342.017 C 254.581 341.146,253.549 340.311,253.073 340.160 C 252.597 340.009,251.600 339.191,250.856 338.343 C 250.112 337.494,249.316 336.800,249.088 336.800 C 248.859 336.800,248.205 336.299,247.636 335.686 C 246.279 334.227,242.584 331.203,242.144 331.191 C 241.955 331.186,241.181 330.466,240.424 329.591 C 239.667 328.716,238.822 328.000,238.546 328.000 C 238.270 328.000,237.285 327.190,236.357 326.200 C 235.429 325.210,234.533 324.400,234.366 324.400 C 234.198 324.400,233.543 323.905,232.909 323.300 C 230.639 321.134,228.191 319.210,227.700 319.205 C 227.425 319.202,227.200 319.020,227.200 318.800 C 227.200 318.580,226.829 318.400,226.376 318.400 C 225.923 318.400,225.664 318.220,225.800 318.000 C 226.582 316.735,225.374 317.954,223.723 320.096 M227.825 319.906 C 228.251 320.295,229.140 321.029,229.800 321.539 C 230.460 322.048,231.677 323.090,232.505 323.853 C 233.349 324.632,234.210 325.117,234.467 324.959 C 234.739 324.791,234.814 324.853,234.653 325.114 C 234.505 325.354,234.641 325.697,234.956 325.875 C 235.271 326.054,236.130 326.741,236.864 327.402 C 237.599 328.064,240.270 330.310,242.800 332.393 C 245.330 334.476,247.850 336.570,248.400 337.046 C 250.497 338.860,263.196 349.428,267.492 352.934 C 272.602 357.104,273.687 359.600,270.389 359.600 C 270.099 359.600,253.287 345.786,248.778 341.843 C 247.996 341.159,246.556 339.950,245.578 339.156 C 240.479 335.017,236.003 331.289,234.384 329.833 C 233.386 328.935,230.821 326.779,228.684 325.042 C 225.951 322.819,224.800 321.629,224.800 321.022 C 224.800 319.259,226.447 318.652,227.825 319.906 M209.400 322.655 C 205.856 325.967,176.876 354.263,172.000 359.172 C 165.178 366.040,163.748 370.963,168.206 372.231 C 171.954 373.298,173.928 372.080,183.200 362.979 C 187.050 359.200,193.590 352.799,197.734 348.754 C 212.153 334.680,218.418 328.400,218.043 328.400 C 217.595 328.400,216.834 329.117,205.400 340.315 C 200.560 345.055,193.090 352.358,188.800 356.544 C 184.510 360.730,179.344 365.773,177.319 367.750 C 173.842 371.147,173.582 371.320,172.619 370.882 C 170.110 369.738,169.259 370.646,211.118 329.805 L 216.852 324.209 215.926 323.500 C 215.417 323.110,214.337 322.253,213.527 321.595 C 211.726 320.134,212.237 320.003,209.400 322.655 M224.400 322.024 C 224.400 322.858,223.812 323.066,223.388 322.381 C 223.025 321.794,223.509 320.696,223.997 320.998 C 224.219 321.135,224.400 321.597,224.400 322.024 M226.000 323.514 C 226.000 323.686,226.534 324.143,227.187 324.529 C 228.321 325.199,232.305 328.800,231.912 328.800 C 231.279 328.800,229.100 327.399,228.452 326.576 C 228.030 326.039,227.519 325.600,227.317 325.600 C 227.115 325.600,226.432 325.060,225.800 324.400 C 224.901 323.462,224.798 323.200,225.325 323.200 C 225.696 323.200,226.000 323.341,226.000 323.514 M213.367 326.929 C 196.103 343.679,183.274 356.204,174.700 364.681 C 170.768 368.568,169.687 370.684,171.300 371.335 C 171.694 371.494,171.692 371.544,171.291 371.568 C 171.012 371.586,170.576 371.147,170.324 370.593 C 169.458 368.692,170.967 366.775,181.030 357.000 C 186.239 351.940,192.699 345.640,195.385 343.000 C 211.048 327.607,215.261 323.649,215.773 323.845 C 216.145 323.988,215.356 324.998,213.367 326.929 M233.782 329.818 C 234.797 330.833,235.094 331.600,234.472 331.600 C 234.037 331.600,232.400 329.702,232.400 329.197 C 232.400 328.588,232.675 328.711,233.782 329.818 M238.245 333.700 C 238.803 334.195,239.874 335.185,240.623 335.900 C 241.373 336.615,242.169 337.200,242.393 337.200 C 242.617 337.200,243.121 337.521,243.513 337.913 C 243.905 338.305,245.390 339.586,246.813 340.759 C 249.183 342.713,251.600 345.050,251.600 345.387 C 251.600 345.463,251.240 345.431,250.800 345.316 C 250.360 345.201,250.000 344.896,250.000 344.640 C 250.000 344.383,249.505 343.872,248.900 343.505 C 248.295 343.138,247.225 342.289,246.522 341.619 C 245.819 340.949,245.090 340.400,244.903 340.400 C 244.716 340.400,243.859 339.680,243.000 338.800 C 242.141 337.920,241.248 337.200,241.016 337.200 C 240.784 337.200,239.623 336.210,238.436 335.000 C 236.342 332.865,236.198 331.887,238.245 333.700 M254.372 347.233 C 255.081 347.911,256.233 348.859,256.931 349.338 C 258.550 350.451,259.726 351.426,261.709 353.300 C 262.582 354.125,263.391 354.800,263.506 354.800 C 263.843 354.800,266.391 357.370,266.396 357.714 C 266.403 358.249,264.752 357.179,263.216 355.654 C 261.547 353.996,256.699 350.035,255.474 349.327 C 254.257 348.624,251.960 346.000,252.561 346.000 C 252.847 346.000,253.662 346.555,254.372 347.233 M268.800 359.200 C 269.263 359.663,270.147 360.005,270.900 360.013 C 272.131 360.025,272.159 360.057,271.421 360.614 C 270.901 361.008,270.510 361.070,270.241 360.801 C 270.021 360.581,269.561 360.394,269.220 360.387 C 268.536 360.374,266.909 358.400,267.581 358.400 C 267.812 358.400,268.360 358.760,268.800 359.200 " stroke="none" fill="#9e3f16" fill-rule="evenodd"></path></g></svg>